<svg preserveAspectRatio="none" width="100%" height="100%" overflow="visible" style="display: block;" viewBox="0 0 20 20" fill="none" xmlns="http://www.w3.org/2000/svg">
<g id="SVG">
<path id="Vector" d="M10 20C15.5192 20 20 15.5192 20 10C20 4.48085 15.5192 0 10 0C4.48085 0 0 4.48085 0 10C0 15.5192 4.48085 20 10 20V20M10 5C10.5195 5 10.9375 5.41797 10.9375 5.9375V10.3125C10.9375 10.832 10.5195 11.25 10 11.25Cnan nan 9.0625 10.832 9.0625 10.3125V5.9375C9.0625 5.41797 9.48047 5 10 5V5M8.75 13.75C8.75 13.0601 9.31011 12.5 10 12.5C10.6899 12.5 11.25 13.0601 11.25 13.75C11.25 14.4399 10.6899 15 10 15C9.31011 15 8.75 14.4399 8.75 13.75V13.75" fill="var(--fill-0, #DC2626)"/>
</g>
</svg>
