<svg preserveAspectRatio="none" width="100%" height="100%" overflow="visible" style="display: block;" viewBox="0 0 14 14" fill="none" xmlns="http://www.w3.org/2000/svg">
<g id="Frame">
<g clip-path="url(#clip0_0_6)">
<path id="Vector" d="M4.59922 10.5246C4.18906 10.377 3.73242 10.4398 3.37969 10.6996C3.15547 10.8637 2.76992 11.1043 2.30234 11.3203C2.45547 10.9184 2.57305 10.4645 2.61133 9.96953C2.63867 9.6168 2.52109 9.2668 2.28867 8.99883C1.65156 8.27969 1.3125 7.4375 1.3125 6.5625C1.3125 4.38867 3.59023 2.1875 7 2.1875C10.4098 2.1875 12.6875 4.38867 12.6875 6.5625C12.6875 8.73633 10.4098 10.9375 7 10.9375C6.13594 10.9375 5.32383 10.7871 4.59922 10.5246ZM0.719141 11.5883C0.675391 11.6621 0.628906 11.7359 0.579688 11.8098L0.571484 11.8234C0.527734 11.8863 0.483984 11.9492 0.440234 12.0121C0.344531 12.1406 0.240625 12.2664 0.13125 12.3812C0.00546876 12.507 -0.0300781 12.693 0.0382812 12.857C0.106641 13.0211 0.265234 13.1277 0.442969 13.1277C0.582422 13.1277 0.721875 13.1195 0.861328 13.1059L0.880469 13.1031C1.00078 13.0895 1.12109 13.073 1.24141 13.0512C1.26328 13.0484 1.28516 13.043 1.30703 13.0375C1.79375 12.9418 2.26133 12.7777 2.67695 12.5973C3.30313 12.3238 3.83633 11.9984 4.16172 11.7605C5.03125 12.075 5.99375 12.25 7.0082 12.25C10.8746 12.25 14.0082 9.7043 14.0082 6.5625C14.0082 3.4207 10.8664 0.875 7 0.875C3.13359 0.875 0 3.4207 0 6.5625C0 7.7957 0.483984 8.93594 1.3043 9.86836C1.25234 10.5383 0.992578 11.1344 0.719141 11.5883ZM3.9375 7.4375C4.16956 7.4375 4.39212 7.34531 4.55622 7.18122C4.72031 7.01712 4.8125 6.79456 4.8125 6.5625C4.8125 6.33044 4.72031 6.10788 4.55622 5.94378C4.39212 5.77969 4.16956 5.6875 3.9375 5.6875C3.70544 5.6875 3.48288 5.77969 3.31878 5.94378C3.15469 6.10788 3.0625 6.33044 3.0625 6.5625C3.0625 6.79456 3.15469 7.01712 3.31878 7.18122C3.48288 7.34531 3.70544 7.4375 3.9375 7.4375ZM7.875 6.5625C7.875 6.33044 7.78281 6.10788 7.61872 5.94378C7.45462 5.77969 7.23206 5.6875 7 5.6875C6.76794 5.6875 6.54538 5.77969 6.38128 5.94378C6.21719 6.10788 6.125 6.33044 6.125 6.5625C6.125 6.79456 6.21719 7.01712 6.38128 7.18122C6.54538 7.34531 6.76794 7.4375 7 7.4375C7.23206 7.4375 7.45462 7.34531 7.61872 7.18122C7.78281 7.01712 7.875 6.79456 7.875 6.5625ZM10.0625 7.4375C10.2946 7.4375 10.5171 7.34531 10.6812 7.18122C10.8453 7.01712 10.9375 6.79456 10.9375 6.5625C10.9375 6.33044 10.8453 6.10788 10.6812 5.94378C10.5171 5.77969 10.2946 5.6875 10.0625 5.6875C9.83044 5.6875 9.60788 5.77969 9.44378 5.94378C9.27969 6.10788 9.1875 6.33044 9.1875 6.5625C9.1875 6.79456 9.27969 7.01712 9.44378 7.18122C9.60788 7.34531 9.83044 7.4375 10.0625 7.4375Z" fill="var(--fill-0, #3A46E5)"/>
</g>
</g>
<defs>
<clipPath id="clip0_0_6">
<path d="M0 0H14V14H0V0Z" fill="white"/>
</clipPath>
</defs>
</svg>
