<svg preserveAspectRatio="none" width="100%" height="100%" overflow="visible" style="display: block;" viewBox="0 0 14 14" fill="none" xmlns="http://www.w3.org/2000/svg">
<g id="Frame">
<g clip-path="url(#clip0_0_4)">
<path id="Vector" d="M13.6199 0.153125C13.8961 0.344531 14.041 0.675391 13.9891 1.00625L12.2391 12.3812C12.198 12.6465 12.0367 12.8789 11.8016 13.0102C11.5664 13.1414 11.2848 13.1578 11.0359 13.0539L7.76562 11.6949L5.89258 13.7211C5.64922 13.9863 5.26641 14.0738 4.93008 13.9426C4.59375 13.8113 4.375 13.4859 4.375 13.125V10.8391C4.375 10.7297 4.41602 10.6258 4.48984 10.5465L9.07266 5.54531C9.23125 5.37305 9.22578 5.10781 9.06172 4.94375C8.89766 4.77969 8.63242 4.76875 8.46016 4.92461L2.89844 9.86562L0.483984 8.65703C0.194141 8.51211 0.00820313 8.22227 0 7.89961C-0.00820313 7.57695 0.161328 7.27617 0.440234 7.11484L12.6902 0.114844C12.9828 -0.0519531 13.3437 -0.0355469 13.6199 0.153125Z" fill="var(--fill-0, white)"/>
</g>
</g>
<defs>
<clipPath id="clip0_0_4">
<path d="M0 0H14V14H0V0Z" fill="white"/>
</clipPath>
</defs>
</svg>
