<svg preserveAspectRatio="none" width="100%" height="100%" overflow="visible" style="display: block;" viewBox="0 0 21 21" fill="none" xmlns="http://www.w3.org/2000/svg">
<g id="Frame">
<path id="Vector" fill-rule="evenodd" clip-rule="evenodd" d="M5.4915 7.5705C5.64192 7.42578 5.84365 7.3467 6.05235 7.35063C6.26105 7.35457 6.45964 7.44121 6.6045 7.5915L10.5 11.7264L14.3955 7.5915C14.4663 7.51344 14.5521 7.45038 14.6477 7.40607C14.7433 7.36176 14.8469 7.3371 14.9522 7.33354C15.0575 7.32998 15.1625 7.3476 15.2609 7.38535C15.3593 7.42311 15.4491 7.48023 15.525 7.55334C15.6009 7.62644 15.6614 7.71404 15.7029 7.81094C15.7443 7.90785 15.7659 8.01208 15.7663 8.11747C15.7667 8.22286 15.746 8.32727 15.7053 8.42449C15.6646 8.52172 15.6048 8.6098 15.5295 8.6835L11.067 13.4085C10.9935 13.4847 10.9055 13.5453 10.808 13.5867C10.7106 13.6282 10.6059 13.6495 10.5 13.6495C10.3941 13.6495 10.2894 13.6282 10.192 13.5867C10.0945 13.5453 10.0065 13.4847 9.933 13.4085L5.4705 8.6835C5.32578 8.53308 5.2467 8.33135 5.25063 8.12265C5.25457 7.91395 5.34121 7.71536 5.4915 7.5705Z" fill="var(--fill-0, #334155)"/>
</g>
</svg>
