<svg width="20" height="24" viewBox="0 0 20 24" fill="none" xmlns="http://www.w3.org/2000/svg">
<path d="M20 24H0V0H20V24Z" stroke="#E5E7EB"/>
<g clip-path="url(#clip0_14_12924)">
<path d="M11 11.5V4.51875C11 4.2375 11.2188 4 11.5 4C15.3656 4 18.5 7.13438 18.5 11C18.5 11.2812 18.2625 11.5 17.9813 11.5H11ZM2.5 12.5C2.5 8.70937 5.31562 5.57187 8.96875 5.07187C9.25625 5.03125 9.5 5.2625 9.5 5.55313V13L14.3906 17.8906C14.6 18.1 14.5844 18.4438 14.3438 18.6125C13.1187 19.4875 11.6187 20 10 20C5.85938 20 2.5 16.6438 2.5 12.5ZM18.95 13C19.2406 13 19.4688 13.2437 19.4312 13.5312C19.1906 15.2781 18.35 16.8312 17.1219 17.9781C16.9344 18.1531 16.6406 18.1406 16.4594 17.9563L11.5 13H18.95Z" fill="#2F35CA"/>
</g>
<defs>
<clipPath id="clip0_14_12924">
<path d="M1.5 4H19.5V20H1.5V4Z" fill="white"/>
</clipPath>
</defs>
</svg>
