<svg preserveAspectRatio="none" width="100%" height="100%" overflow="visible" style="display: block;" viewBox="0 0 14.1421 14.1421" fill="none" xmlns="http://www.w3.org/2000/svg">
<g id="Frame">
<g clip-path="url(#clip0_0_8)">
<path id="Vector" d="M8.39687 1.32582C8.39687 0.974191 8.25718 0.636964 8.00854 0.388324C7.7599 0.139684 7.42267 0 7.07104 0C6.71942 0 6.38219 0.139684 6.13355 0.388324C5.88491 0.636964 5.74522 0.974191 5.74522 1.32582C5.74522 1.67745 5.88491 2.01468 6.13355 2.26332C6.38219 2.51196 6.71942 2.65164 7.07104 2.65164C7.42267 2.65164 7.7599 2.51196 8.00854 2.26332C8.25718 2.01468 8.39687 1.67745 8.39687 1.32582ZM8.39687 12.8163C8.39687 12.4646 8.25718 12.1274 8.00854 11.8788C7.7599 11.6301 7.42267 11.4904 7.07104 11.4904C6.71942 11.4904 6.38219 11.6301 6.13355 11.8788C5.88491 12.1274 5.74522 12.4646 5.74522 12.8163C5.74522 13.1679 5.88491 13.5051 6.13355 13.7538C6.38219 14.0024 6.71942 14.1421 7.07104 14.1421C7.42267 14.1421 7.7599 14.0024 8.00854 13.7538C8.25718 13.5051 8.39687 13.1679 8.39687 12.8163ZM1.32582 8.39687C1.67745 8.39687 2.01468 8.25718 2.26332 8.00854C2.51196 7.7599 2.65164 7.42267 2.65164 7.07104C2.65164 6.71942 2.51196 6.38219 2.26332 6.13355C2.01468 5.88491 1.67745 5.74522 1.32582 5.74522C0.974191 5.74522 0.636964 5.88491 0.388324 6.13355C0.139684 6.38219 0 6.71942 0 7.07104C0 7.42267 0.139684 7.7599 0.388324 8.00854C0.636964 8.25718 0.974191 8.39687 1.32582 8.39687ZM14.1421 7.07104C14.1421 6.71942 14.0024 6.38219 13.7538 6.13355C13.5051 5.88491 13.1679 5.74522 12.8163 5.74522C12.4646 5.74522 12.1274 5.88491 11.8788 6.13355C11.6301 6.38219 11.4904 6.71942 11.4904 7.07104C11.4904 7.42267 11.6301 7.7599 11.8788 8.00854C12.1274 8.25718 12.4646 8.39687 12.8163 8.39687C13.1679 8.39687 13.5051 8.25718 13.7538 8.00854C14.0024 7.7599 14.1421 7.42267 14.1421 7.07104ZM3.94708 12.0705C4.07023 11.9473 4.16791 11.8012 4.23456 11.6403C4.3012 11.4794 4.3355 11.3069 4.3355 11.1328C4.3355 10.9586 4.3012 10.7861 4.23456 10.6253C4.16791 10.4644 4.07023 10.3182 3.94708 10.195C3.82393 10.0719 3.67774 9.97418 3.51684 9.90753C3.35594 9.84089 3.18349 9.80658 3.00934 9.80658C2.65762 9.80658 2.3203 9.94631 2.0716 10.195C1.82289 10.4437 1.68317 10.781 1.68317 11.1328C1.68317 11.4845 1.82289 11.8218 2.0716 12.0705C2.3203 12.3192 2.65762 12.4589 3.00934 12.4589C3.36106 12.4589 3.69837 12.3192 3.94708 12.0705ZM3.94708 3.94432C4.07634 3.8226 4.17985 3.67617 4.25144 3.5137C4.32304 3.35123 4.36128 3.17603 4.36388 2.9985C4.36649 2.82097 4.33341 2.64473 4.26661 2.48023C4.19981 2.31572 4.10065 2.16631 3.97501 2.04086C3.84937 1.91541 3.69982 1.81647 3.53522 1.74991C3.37061 1.68335 3.19432 1.65053 3.0168 1.6534C2.83927 1.65627 2.66413 1.69476 2.50177 1.7666C2.3394 1.83843 2.19312 1.94215 2.0716 2.0716C1.82289 2.3203 1.68317 2.65762 1.68317 3.00934C1.68317 3.36106 1.82289 3.69837 2.0716 3.94708C2.3203 4.19578 2.65762 4.3355 3.00934 4.3355C3.36106 4.3355 3.69837 4.19578 3.94708 3.94708V3.94432ZM10.195 12.0705C10.3182 12.1936 10.4644 12.2913 10.6253 12.358C10.7861 12.4246 10.9586 12.4589 11.1328 12.4589C11.3069 12.4589 11.4794 12.4246 11.6403 12.358C11.8012 12.2913 11.9473 12.1936 12.0705 12.0705C12.1936 11.9473 12.2913 11.8012 12.358 11.6403C12.4246 11.4794 12.4589 11.3069 12.4589 11.1328C12.4589 10.9586 12.4246 10.7861 12.358 10.6253C12.2913 10.4644 12.1936 10.3182 12.0705 10.195C11.9473 10.0719 11.8012 9.97418 11.6403 9.90753C11.4794 9.84089 11.3069 9.80658 11.1328 9.80658C10.9586 9.80658 10.7861 9.84089 10.6253 9.90753C10.4644 9.97418 10.3182 10.0719 10.195 10.195C10.0719 10.3182 9.97418 10.4644 9.90753 10.6253C9.84089 10.7861 9.80658 10.9586 9.80658 11.1328C9.80658 11.3069 9.84089 11.4794 9.90753 11.6403C9.97418 11.8012 10.0719 11.9473 10.195 12.0705Z" fill="var(--fill-0, #2F35CA)"/>
</g>
</g>
<defs>
<clipPath id="clip0_0_8">
<path d="M0 0H14.1421V14.1421H0V0Z" fill="white"/>
</clipPath>
</defs>
</svg>
