<svg preserveAspectRatio="none" width="100%" height="100%" overflow="visible" style="display: block;" viewBox="0 0 8.75 10" fill="none" xmlns="http://www.w3.org/2000/svg">
<g id="Frame">
<g clip-path="url(#clip0_0_18)">
<path id="Vector" d="M8.56641 5.44141C8.81055 5.19727 8.81055 4.80078 8.56641 4.55664L5.44141 1.43164C5.19727 1.1875 4.80078 1.1875 4.55664 1.43164C4.3125 1.67578 4.3125 2.07227 4.55664 2.31641L6.61719 4.375H0.625C0.279297 4.375 0 4.6543 0 5C0 5.3457 0.279297 5.625 0.625 5.625H6.61523L4.55859 7.68359C4.31445 7.92773 4.31445 8.32422 4.55859 8.56836C4.80273 8.8125 5.19922 8.8125 5.44336 8.56836L8.56836 5.44336L8.56641 5.44141Z" fill="var(--fill-0, #3A46E5)"/>
</g>
</g>
<defs>
<clipPath id="clip0_0_18">
<path d="M0 0H8.75V10H0V0Z" fill="white"/>
</clipPath>
</defs>
</svg>
