<svg preserveAspectRatio="none" width="100%" height="100%" overflow="visible" style="display: block;" viewBox="0 0 14 16" fill="none" xmlns="http://www.w3.org/2000/svg">
<g id="Frame">
<g clip-path="url(#clip0_0_10)">
<path id="Vector" d="M7 0C6.44688 0 6 0.446875 6 1V1.55938C3.73438 1.91875 2 3.88125 2 6.25V7.29375C2 8.7125 1.51562 10.0906 0.63125 11.1969L0.165625 11.7812C-0.015625 12.0062 -0.05 12.3156 0.075 12.575C0.2 12.8344 0.4625 13 0.75 13H13.25C13.5375 13 13.8 12.8344 13.925 12.575C14.05 12.3156 14.0156 12.0062 13.8344 11.7812L13.3687 11.2C12.4844 10.0906 12 8.7125 12 7.29375V6.25C12 3.88125 10.2656 1.91875 8 1.55938V1C8 0.446875 7.55313 0 7 0ZM7 3H7.25C9.04375 3 10.5 4.45625 10.5 6.25V7.29375C10.5 8.79062 10.9344 10.25 11.7406 11.5H2.25938C3.06563 10.25 3.5 8.79062 3.5 7.29375V6.25C3.5 4.45625 4.95625 3 6.75 3H7ZM9 14H7H5C5 14.5312 5.20938 15.0406 5.58438 15.4156C5.95938 15.7906 6.46875 16 7 16C7.53125 16 8.04062 15.7906 8.41562 15.4156C8.79062 15.0406 9 14.5312 9 14Z" fill="var(--fill-0, #64748B)"/>
</g>
</g>
<defs>
<clipPath id="clip0_0_10">
<path d="M0 0H14V16H0V0Z" fill="white"/>
</clipPath>
</defs>
</svg>
