<svg preserveAspectRatio="none" width="100%" height="100%" overflow="visible" style="display: block;" viewBox="0 0 20 20" fill="none" xmlns="http://www.w3.org/2000/svg">
<g id="SVG">
<path id="Vector" d="M11.875 1.875C11.875 0.840159 11.0348 0 10 0C8.96516 0 8.125 0.840159 8.125 1.875C8.125 2.90984 8.96516 3.75 10 3.75C11.0348 3.75 11.875 2.90984 11.875 1.875V1.875M11.875 18.125C11.875 17.0902 11.0348 16.25 10 16.25C8.96516 16.25 8.125 17.0902 8.125 18.125C8.125 19.1598 8.96516 20 10 20C11.0348 20 11.875 19.1598 11.875 18.125V18.125M1.875 11.875C2.90984 11.875 3.75 11.0348 3.75 10C3.75 8.96516 2.90984 8.125 1.875 8.125C0.840159 8.125 0 8.96516 0 10C0 11.0348 0.840159 11.875 1.875 11.875V11.875M20 10C20 8.96516 19.1598 8.125 18.125 8.125C17.0902 8.125 16.25 8.96516 16.25 10C16.25 11.0348 17.0902 11.875 18.125 11.875C19.1598 11.875 20 11.0348 20 10V10M5.58203 17.0703C6.31397 16.3384 6.31397 15.1499 5.58203 14.418C4.8501 13.686 3.66162 13.686 2.92969 14.418C2.19775 15.1499 2.19775 16.3384 2.92969 17.0703C3.66162 17.8022 4.8501 17.8022 5.58203 17.0703V17.0703M5.58203 5.57812C6.07977 5.10947 6.28298 4.40705 6.11234 3.74503C5.9417 3.08301 5.42427 2.56634 4.762 2.39668C4.09973 2.22702 3.39761 2.43126 2.92969 2.92969C2.45589 3.40348 2.27085 4.09406 2.44427 4.74127C2.6177 5.38849 3.12323 5.89402 3.77045 6.06744C4.41766 6.24087 5.10824 6.05583 5.58203 5.58203V5.57812M14.418 17.0703C15.1499 17.8022 16.3384 17.8022 17.0703 17.0703C17.8022 16.3384 17.8022 15.1499 17.0703 14.418C16.3384 13.686 15.1499 13.686 14.418 14.418C13.686 15.1499 13.686 16.3384 14.418 17.0703V17.0703" fill="var(--fill-0, #CA8A04)"/>
</g>
</svg>
