<svg preserveAspectRatio="none" width="100%" height="100%" overflow="visible" style="display: block;" viewBox="0 0 16 14" fill="none" xmlns="http://www.w3.org/2000/svg">
<g id="Container">
<path id="Symbol" d="M0 2C0.0208333 1.4375 0.21875 0.96875 0.59375 0.59375V0.59375C0.96875 0.21875 1.4375 0.0208333 2 0H14C14.5625 0.0208333 15.0312 0.21875 15.4062 0.59375C15.7812 0.96875 15.9792 1.4375 16 2V12C15.9792 12.5625 15.7812 13.0312 15.4062 13.4062C15.0312 13.7812 14.5625 13.9792 14 14H2C1.4375 13.9792 0.96875 13.7812 0.59375 13.4062C0.21875 13.0312 0.0208333 12.5625 0 12V2V2V2M2 4V12H7V4H2V4V4M14 4H9V12H14V4V4V4" fill="var(--fill-0, #4F46E5)"/>
</g>
</svg>