<svg preserveAspectRatio="none" width="100%" height="100%" overflow="visible" style="display: block;" viewBox="0 0 25 20" fill="none" xmlns="http://www.w3.org/2000/svg">
<g id="Frame">
<path d="M25 20H0V0H25V20Z" stroke="var(--stroke-0, #E5E7EB)"/>
<path id="Vector" d="M14.8828 4.48828L7.26953 1.63281C6.61719 1.39063 5.89453 1.42578 5.27344 1.73828L3.48047 2.63281C3.04687 2.85156 3.01562 3.45703 3.42187 3.71875L9.16016 7.41016L5.3125 9.375L3.03906 8.36328C2.69922 8.21094 2.30469 8.21875 1.97266 8.38672L0.714844 9.01562C0.351562 9.19922 0.253906 9.67187 0.519531 9.98047L3.375 13.3125C3.61328 13.5898 3.96094 13.75 4.32422 13.75H9.70312C9.89844 13.75 10.0898 13.7031 10.2617 13.6172L20.9219 8.28906C22.7383 7.37891 24.1445 5.81641 24.8594 3.91406C25.2305 2.92969 24.5 1.875 23.4453 1.875H21.2031C20.4141 1.875 19.6328 2.0625 18.9297 2.42188L14.8828 4.48828ZM0 18.75C0 19.4414 0.558594 20 1.25 20H23.75C24.4414 20 25 19.4414 25 18.75C25 18.0586 24.4414 17.5 23.75 17.5H1.25C0.558594 17.5 0 18.0586 0 18.75Z" fill="var(--fill-0, #3A46E5)"/>
</g>
</svg>
