<svg preserveAspectRatio="none" width="100%" height="100%" overflow="visible" style="display: block;" viewBox="0 0 24 24" fill="none" xmlns="http://www.w3.org/2000/svg">
<g id="SVG">
<path id="Vector" d="M0 4.5C0 2.84531 1.34531 1.5 3 1.5H21C22.6547 1.5 24 2.84531 24 4.5V19.5C24 21.1547 22.6547 22.5 21 22.5H3C1.34531 22.5 0 21.1547 0 19.5V4.5V4.5M15.1781 9.49219C14.9672 9.18281 14.6203 9 14.25 9Cnan nan 13.5281 9.18281 13.3219 9.49219L9.24375 15.4734L8.00156 13.9219C7.78594 13.6547 7.4625 13.5 7.125 13.5Cnan nan 6.45937 13.6547 6.24844 13.9219L3.24844 17.6719C2.97656 18.0094 2.925 18.4734 3.1125 18.8625Cnan nan 3.69375 19.5 4.125 19.5H8.625H10.125H19.875C20.2922 19.5 20.6766 19.2703 20.8687 18.9Cnan nan 21.0375 18.0844 20.8031 17.7422L15.1781 9.49219V9.49219M5.25 9C6.49181 9 7.5 7.99181 7.5 6.75C7.5 5.50819 6.49181 4.5 5.25 4.5C4.00819 4.5 3 5.50819 3 6.75C3 7.99181 4.00819 9 5.25 9V9" fill="var(--fill-0, #3B82F6)"/>
</g>
</svg>
