<svg preserveAspectRatio="none" width="100%" height="100%" overflow="visible" style="display: block;" viewBox="0 0 24 24" fill="none" xmlns="http://www.w3.org/2000/svg">
<g id="SVG">
<path id="Vector" d="M0 3C0 1.34531 1.34531 0 3 0H10.5V6C10.5 6.82969 11.1703 7.5 12 7.5H18V14.25H8.25C6.59531 14.25 5.25 15.5953 5.25 17.25V24H3C1.34531 24 0 22.6547 0 21V3V3M18 6H12V0L18 6V6M8.25 16.5H9.75C11.1984 16.5 12.375 17.6766 12.375 19.125Cnan nan 11.1984 21.75 9.75 21.75H9V23.25C9 23.6625 8.6625 24 8.25 24Cnan nan 7.5 23.6625 7.5 23.25V21V17.25C7.5 16.8375 7.8375 16.5 8.25 16.5V16.5M9.75 20.25C10.3734 20.25 10.875 19.7484 10.875 19.125Cnan nan 10.3734 18 9.75 18H9V20.25H9.75V20.25M14.25 16.5H15.75C16.9922 16.5 18 17.5078 18 18.75V21.75C18 22.9922 16.9922 24 15.75 24H14.25C13.8375 24 13.5 23.6625 13.5 23.25V17.25C13.5 16.8375 13.8375 16.5 14.25 16.5V16.5M15.75 22.5C16.1625 22.5 16.5 22.1625 16.5 21.75V18.75C16.5 18.3375 16.1625 18 15.75 18H15V22.5H15.75V22.5M19.5 17.25C19.5 16.8375 19.8375 16.5 20.25 16.5H22.5C22.9125 16.5 23.25 16.8375 23.25 17.25Cnan nan 22.9125 18 22.5 18H21V19.5H22.5C22.9125 19.5 23.25 19.8375 23.25 20.25Cnan nan 22.9125 21 22.5 21H21V23.25C21 23.6625 20.6625 24 20.25 24Cnan nan 19.5 23.6625 19.5 23.25V20.25V17.25V17.25" fill="var(--fill-0, #EF4444)"/>
</g>
</svg>
