<svg preserveAspectRatio="none" width="100%" height="100%" overflow="visible" style="display: block;" viewBox="0 0 18 16" fill="none" xmlns="http://www.w3.org/2000/svg">
<g id="SVG">
<path id="Vector" d="M16.5 5V13C16.5 13.275 16.275 13.5 16 13.5H10C10 12.1187 8.88125 11 7.5 11H5.5C4.11875 11 3 12.1187 3 13.5H2C1.725 13.5 1.5 13.275 1.5 13V5H16.5V5M2 1C0.896875 1 0 1.89688 0 3V13C0 14.1031 0.896875 15 2 15H16C17.1031 15 18 14.1031 18 13V3C18 1.89688 17.1031 1 16 1H2V1M8.5 8C8.5 6.89617 7.60383 6 6.5 6C5.39617 6 4.5 6.89617 4.5 8C4.5 9.10383 5.39617 10 6.5 10C7.60383 10 8.5 9.10383 8.5 8V8M11.75 6.5C11.3344 6.5 11 6.83437 11 7.25Cnan nan 11.3344 8 11.75 8H14.25C14.6656 8 15 7.66563 15 7.25Cnan nan 14.6656 6.5 14.25 6.5H11.75V6.5M11.75 9.5C11.3344 9.5 11 9.83437 11 10.25Cnan nan 11.3344 11 11.75 11H14.25C14.6656 11 15 10.6656 15 10.25Cnan nan 14.6656 9.5 14.25 9.5H11.75V9.5" fill="var(--fill-0, #2563EB)"/>
</g>
</svg>
