<svg preserveAspectRatio="none" width="100%" height="100%" overflow="visible" style="display: block;" viewBox="0 0 22.5 18" fill="none" xmlns="http://www.w3.org/2000/svg">
<g id="SVG">
<path id="Vector" d="M5.0625 16.875C2.26758 16.875 0 14.6074 0 11.8125C0 9.60469 1.41328 7.72734 3.38203 7.03477C3.37852 6.93984 3.375 6.84492 3.375 6.75C3.375 3.64219 5.89219 1.125 9 1.125C11.0848 1.125 12.9023 2.25703 13.8762 3.94453C14.4105 3.58594 15.0574 3.375 15.75 3.375C17.6133 3.375 19.125 4.88672 19.125 6.75C19.125 7.17891 19.0441 7.58672 18.9 7.96641C20.9531 8.38125 22.5 10.1988 22.5 12.375C22.5 14.8605 20.4855 16.875 18 16.875H5.0625V16.875M7.83984 9.24609C7.50938 9.57656 7.50938 10.1109 7.83984 10.4379Cnan nan 8.70469 10.7684 9.03164 10.4379L10.4027 9.0668V13.7812C10.4027 14.2488 10.7789 14.625 11.2465 14.625Cnan nan 12.0902 14.2488 12.0902 13.7812V9.0668L13.4613 10.4379C13.7918 10.7684 14.3262 10.7684 14.6531 10.4379Cnan nan 14.9836 9.57305 14.6531 9.24609L11.8406 6.43359C11.5102 6.10313 10.9758 6.10313 10.6488 6.43359L7.83633 9.24609H7.83984" fill="var(--fill-0, #6B7280)"/>
</g>
</svg>
