<svg preserveAspectRatio="none" width="100%" height="100%" overflow="visible" style="display: block;" viewBox="0 0 18.0023 16" fill="none" xmlns="http://www.w3.org/2000/svg">
<g id="SVG">
<path id="Vector" d="M9 2.5C6.9625 2.5 5.2875 3.425 4.00312 4.61562C2.8 5.73437 1.96875 7.0625 1.54375 8C1.96875 8.9375 2.8 10.2656 4 11.3844C5.2875 12.575 6.9625 13.5 9 13.5C11.0375 13.5 12.7125 12.575 13.9969 11.3844C15.2 10.2656 16.0313 8.9375 16.4563 8C16.0313 7.0625 15.2 5.73437 14 4.61562C12.7125 3.425 11.0375 2.5 9 2.5V2.5M2.98125 3.51875C4.45312 2.15 6.475 1 9 1C11.525 1 13.5469 2.15 15.0188 3.51875C16.4813 4.87812 17.4594 6.5 17.925 7.61562C18.0281 7.8625 18.0281 8.1375 17.925 8.38438C17.4594 9.5 16.4813 11.125 15.0188 12.4812C13.5469 13.85 11.525 15 9 15C6.475 15 4.45312 13.85 2.98125 12.4812C1.51875 11.125 0.540625 9.5 0.078125 8.38438C-0.025 8.1375 -0.025 7.8625 0.078125 7.61562C0.540625 6.5 1.51875 4.875 2.98125 3.51875V3.51875M9 10.5C10.3813 10.5 11.5 9.38125 11.5 8Cnan nan 10.3813 5.5 9 5.5C8.97813 5.5 8.95938 5.5 8.9375 5.5C8.97813 5.65937 9 5.82812 9 6C9 7.10312 8.10313 8 7 8C6.82813 8 6.65938 7.97812 6.5 7.9375C6.5 7.95937 6.5 7.97813 6.5 8C6.5 9.38125 7.61875 10.5 9 10.5V10.5M9 4C11.2077 4 13 5.79234 13 8C13 10.2077 11.2077 12 9 12C6.79234 12 5 10.2077 5 8C5 5.79234 6.79234 4 9 4V4" fill="var(--fill-0, #6B7280)"/>
</g>
</svg>
