<svg preserveAspectRatio="none" width="100%" height="100%" overflow="visible" style="display: block;" viewBox="0 0 80 80" fill="none" xmlns="http://www.w3.org/2000/svg">
<g id="Frame">
<path d="M80 80H0V0H80V80Z" stroke="var(--stroke-0, #E5E7EB)"/>
<path id="Vector" d="M40 4.63222C49.3801 4.63222 58.376 8.35846 65.0088 14.9912C71.6415 21.6239 75.3678 30.6199 75.3678 40C75.3678 49.3801 71.6415 58.376 65.0088 65.0088C58.376 71.6415 49.3801 75.3678 40 75.3678C30.6199 75.3678 21.6239 71.6415 14.9912 65.0088C8.35846 58.376 4.63222 49.3801 4.63222 40C4.63222 30.6199 8.35846 21.6239 14.9912 14.9912C21.6239 8.35846 30.6199 4.63222 40 4.63222Z" stroke="var(--stroke-0, #F1F5F9)" stroke-width="6.66667"/>
<path id="Vector_2" d="M40 4.63222C49.3801 4.63222 58.376 8.35846 65.0088 14.9912C71.6415 21.6239 75.3678 30.6199 75.3678 40C75.3678 49.3801 71.6415 58.376 65.0088 65.0088C58.376 71.6415 49.3801 75.3678 40 75.3678C30.6199 75.3678 21.6239 71.6415 14.9912 65.0088C8.35846 58.376 4.63222 49.3801 4.63222 40C4.63222 30.6199 8.35846 21.6239 14.9912 14.9912C21.6239 8.35846 30.6199 4.63222 40 4.63222Z" stroke="var(--stroke-0, #5269F2)" stroke-width="6.66667" stroke-linecap="round" stroke-dasharray="166.67 222.22"/>
</g>
</svg>
