<svg preserveAspectRatio="none" width="100%" height="100%" overflow="visible" style="display: block;" viewBox="0 0 8 8" fill="none" xmlns="http://www.w3.org/2000/svg">
<g id="Frame">
<g clip-path="url(#clip0_0_4)">
<path id="Vector" d="M7.25 4C7.25 3.13805 6.90759 2.3114 6.2981 1.7019C5.6886 1.09241 4.86195 0.75 4 0.75C3.13805 0.75 2.3114 1.09241 1.7019 1.7019C1.09241 2.3114 0.75 3.13805 0.75 4C0.75 4.86195 1.09241 5.6886 1.7019 6.2981C2.3114 6.90759 3.13805 7.25 4 7.25C4.86195 7.25 5.6886 6.90759 6.2981 6.2981C6.90759 5.6886 7.25 4.86195 7.25 4ZM0 4C0 2.93913 0.421427 1.92172 1.17157 1.17157C1.92172 0.421427 2.93913 0 4 0C5.06087 0 6.07828 0.421427 6.82843 1.17157C7.57857 1.92172 8 2.93913 8 4C8 5.06087 7.57857 6.07828 6.82843 6.82843C6.07828 7.57857 5.06087 8 4 8C2.93913 8 1.92172 7.57857 1.17157 6.82843C0.421427 6.07828 0 5.06087 0 4Z" fill="var(--fill-0, #94A3B8)"/>
</g>
</g>
<defs>
<clipPath id="clip0_0_4">
<path d="M0 0H8V8H0V0Z" fill="white"/>
</clipPath>
</defs>
</svg>
