<svg preserveAspectRatio="none" width="100%" height="100%" overflow="visible" style="display: block;" viewBox="0 0 4 16" fill="none" xmlns="http://www.w3.org/2000/svg">
<g id="SVG">
<path id="Vector" d="M2 11.25C1.03415 11.25 0.25 12.0341 0.25 13C0.25 13.9659 1.03415 14.75 2 14.75C2.96585 14.75 3.75 13.9659 3.75 13C3.75 12.0341 2.96585 11.25 2 11.25V11.25M2 6.25C1.03415 6.25 0.25 7.03415 0.25 8C0.25 8.96585 1.03415 9.75 2 9.75C2.96585 9.75 3.75 8.96585 3.75 8C3.75 7.03415 2.96585 6.25 2 6.25V6.25M3.75 3C3.75 2.03415 2.96585 1.25 2 1.25C1.03415 1.25 0.25 2.03415 0.25 3C0.25 3.96585 1.03415 4.75 2 4.75C2.96585 4.75 3.75 3.96585 3.75 3V3" fill="var(--fill-0, #9CA3AF)"/>
</g>
</svg>
