<svg preserveAspectRatio="none" width="100%" height="100%" overflow="visible" style="display: block;" viewBox="0 0 15.7521 14" fill="none" xmlns="http://www.w3.org/2000/svg">
<g id="Container">
<path id="Symbol" d="M0 1.75C0.0182292 1.25781 0.191406 0.847656 0.519531 0.519531V0.519531C0.847656 0.191406 1.25781 0.0182292 1.75 0H6.125V3.5C6.125 3.75521 6.20703 3.96484 6.37109 4.12891C6.53516 4.29297 6.74479 4.375 7 4.375H10.5V5.66016L7.95703 6.67188C7.35547 6.94531 7.03646 7.41927 7 8.09375C6.98177 8.91406 7.15495 9.85286 7.51953 10.9102C7.88411 11.9674 8.56771 12.9245 9.57031 13.7812C9.33333 13.9271 9.0599 14 8.75 14H1.75C1.25781 13.9818 0.847656 13.8086 0.519531 13.4805C0.191406 13.1523 0.0182292 12.7422 0 12.25V1.75V1.75V1.75M10.5 3.5H7V0L10.5 3.5V3.5V3.5M11.5664 6.17969C11.7305 6.10677 11.8945 6.10677 12.0586 6.17969L15.3398 7.49219C15.5951 7.60156 15.7318 7.80208 15.75 8.09375C15.7682 8.69531 15.668 9.36979 15.4492 10.1172C15.2487 10.8646 14.8841 11.5846 14.3555 12.2773C13.8086 12.9701 13.043 13.526 12.0586 13.9453C11.8945 14.0182 11.7305 14.0182 11.5664 13.9453C10.582 13.526 9.81641 12.9701 9.26953 12.2773C8.74089 11.5846 8.3763 10.8646 8.17578 10.1172C7.95703 9.36979 7.85677 8.69531 7.875 8.09375C7.89323 7.80208 8.02995 7.60156 8.28516 7.49219L11.5664 6.17969V6.17969V6.17969M14.4102 8.53125L11.8125 7.49219V12.6328C12.724 12.1406 13.3802 11.5117 13.7812 10.7461C14.1641 9.9987 14.3737 9.26042 14.4102 8.53125V8.53125V8.53125" fill="var(--fill-0, #4B5563)"/>
</g>
</svg>