<svg preserveAspectRatio="none" width="100%" height="100%" overflow="visible" style="display: block;" viewBox="0 0 20 16" fill="none" xmlns="http://www.w3.org/2000/svg">
<g id="Frame">
<g clip-path="url(#clip0_0_51)">
<path id="Vector" d="M10 1C9.74687 1 9.49687 1.04375 9.25937 1.12812L0.49375 4.29375C0.196875 4.40312 0 4.68437 0 5C0 5.31563 0.196875 5.59688 0.49375 5.70625L2.30312 6.35938C1.79062 7.16562 1.5 8.11875 1.5 9.12187V10C1.5 10.8875 1.1625 11.8031 0.803125 12.525C0.6 12.9312 0.36875 13.3312 0.1 13.7C1.04774e-09 13.8344 -0.028125 14.0094 0.028125 14.1687C0.084375 14.3281 0.215625 14.4469 0.378125 14.4875L2.37812 14.9875C2.50937 15.0219 2.65 14.9969 2.76562 14.925C2.88125 14.8531 2.9625 14.7344 2.9875 14.6C3.25625 13.2625 3.12187 12.0625 2.92187 11.2031C2.82187 10.7594 2.6875 10.3063 2.5 9.89062V9.12187C2.5 8.17812 2.81875 7.2875 3.37187 6.575C3.775 6.09062 4.29688 5.7 4.90938 5.45937L9.81562 3.53125C10.0719 3.43125 10.3625 3.55625 10.4625 3.8125C10.5625 4.06875 10.4375 4.35937 10.1812 4.45937L5.275 6.3875C4.8875 6.54062 4.54688 6.775 4.26875 7.0625L9.25625 8.8625C9.49375 8.94688 9.74375 8.99063 9.99687 8.99063C10.25 8.99063 10.5 8.94688 10.7375 8.8625L19.5063 5.70625C19.8031 5.6 20 5.31563 20 5C20 4.68437 19.8031 4.40312 19.5063 4.29375L10.7406 1.12812C10.5031 1.04375 10.2531 1 10 1ZM4 12.75C4 13.8531 6.6875 15 10 15C13.3125 15 16 13.8531 16 12.75L15.5219 8.20625L11.0781 9.8125C10.7312 9.9375 10.3656 10 10 10C9.63437 10 9.26562 9.9375 8.92187 9.8125L4.47813 8.20625L4 12.75Z" fill="var(--fill-0, #9D4EDD)"/>
</g>
</g>
<defs>
<clipPath id="clip0_0_51">
<path d="M0 0H20V16H0V0Z" fill="white"/>
</clipPath>
</defs>
</svg>
