<svg preserveAspectRatio="none" width="100%" height="100%" overflow="visible" style="display: block;" viewBox="0 0 16 16" fill="none" xmlns="http://www.w3.org/2000/svg">
<g id="Frame">
<path d="M16 16H0V0H16V16Z" stroke="var(--stroke-0, #E5E7EB)"/>
<path id="Vector" d="M6.89375 3.7875L8.47188 3H14V6H10.4125C9.72813 5.52812 8.89688 5.25 8 5.25C7.10312 5.25 6.275 5.52812 5.5875 6H2V4H6C6.30937 4 6.61563 3.92812 6.89375 3.7875ZM0 4V13C0 14.1031 0.896875 15 2 15H14C15.1031 15 16 14.1031 16 13V3C16 1.89688 15.1031 1 14 1H8.47188C8.1625 1 7.85625 1.07187 7.57812 1.2125L6 2H5V1.5C5 1.225 4.775 1 4.5 1H2.5C2.225 1 2 1.225 2 1.5V2C0.896875 2 0 2.89688 0 4ZM5.25 9.5C5.25 8.77065 5.53973 8.07118 6.05546 7.55546C6.57118 7.03973 7.27065 6.75 8 6.75C8.72935 6.75 9.42882 7.03973 9.94454 7.55546C10.4603 8.07118 10.75 8.77065 10.75 9.5C10.75 10.2293 10.4603 10.9288 9.94454 11.4445C9.42882 11.9603 8.72935 12.25 8 12.25C7.27065 12.25 6.57118 11.9603 6.05546 11.4445C5.53973 10.9288 5.25 10.2293 5.25 9.5Z" fill="var(--fill-0, #5269F2)"/>
</g>
</svg>
