<svg preserveAspectRatio="none" width="100%" height="100%" overflow="visible" style="display: block;" viewBox="0 0 18 16" fill="none" xmlns="http://www.w3.org/2000/svg">
<g id="Frame">
<path d="M18 16H0V0H18V16Z" stroke="var(--stroke-0, #E5E7EB)"/>
<path id="Vector" d="M0 3.51562V13.1969C0 13.7594 0.315625 14.2906 0.84375 14.4875C3.5625 15.5031 6.28125 14.8094 9 14.1156C11.4938 13.4813 13.9875 12.8437 16.4781 13.525C17.1969 13.7219 18 13.2281 18 12.4812V2.80312C18 2.24062 17.6844 1.70938 17.1562 1.5125C14.4375 0.496875 11.7188 1.19062 9 1.88437C6.50625 2.51875 4.0125 3.15312 1.52188 2.47187C0.8 2.275 0 2.76875 0 3.51562ZM9 11C7.61875 11 6.5 9.65625 6.5 8C6.5 6.34375 7.61875 5 9 5C10.3813 5 11.5 6.34375 11.5 8C11.5 9.65625 10.3813 11 9 11ZM2 11C3.10312 11 4 11.8969 4 13H2V11ZM4 4.5C4 5.60312 3.10312 6.5 2 6.5V4.5H4ZM16 9.5V11.5H14C14 10.3969 14.8969 9.5 16 9.5ZM14 3H16V5C14.8969 5 14 4.10312 14 3Z" fill="var(--fill-0, #5269F2)"/>
</g>
</svg>
