<svg preserveAspectRatio="none" width="100%" height="100%" overflow="visible" style="display: block;" viewBox="0 0 12.25 14" fill="none" xmlns="http://www.w3.org/2000/svg">
<g id="Container">
<path id="Symbol" d="M3.9375 3.9375V5.25H8.3125V3.9375C8.29427 3.31771 8.08464 2.79818 7.68359 2.37891C7.26432 1.97786 6.74479 1.76823 6.125 1.75C5.50521 1.76823 4.98568 1.97786 4.56641 2.37891C4.16536 2.79818 3.95573 3.31771 3.9375 3.9375V3.9375V3.9375M2.1875 5.25V3.9375C2.22396 2.82552 2.60677 1.89583 3.33594 1.14844C4.08333 0.419271 5.01302 0.0364583 6.125 0C7.23698 0.0364583 8.16667 0.419271 8.91406 1.14844C9.64323 1.89583 10.026 2.82552 10.0625 3.9375V5.25H10.5C10.9922 5.26823 11.4023 5.44141 11.7305 5.76953C12.0586 6.09766 12.2318 6.50781 12.25 7V12.25C12.2318 12.7422 12.0586 13.1523 11.7305 13.4805C11.4023 13.8086 10.9922 13.9818 10.5 14H1.75C1.25781 13.9818 0.847656 13.8086 0.519531 13.4805C0.191406 13.1523 0.0182292 12.7422 0 12.25V7C0.0182292 6.50781 0.191406 6.09766 0.519531 5.76953C0.847656 5.44141 1.25781 5.26823 1.75 5.25H2.1875V5.25V5.25" fill="var(--fill-0, #4B5563)"/>
</g>
</svg>
