<svg preserveAspectRatio="none" width="100%" height="100%" overflow="visible" style="display: block;" viewBox="0 0 12.0082 16.0022" fill="none" xmlns="http://www.w3.org/2000/svg">
<g id="Container">
<path id="Symbol" d="M9.91033 1.40737C10.0978 0.928199 9.99366 0.521949 9.59783 0.188616C9.16033 -0.0822173 8.74366 -0.0613839 8.34783 0.251116L0.347826 7.25112C0.0144928 7.56362 -0.0792572 7.9282 0.0665761 8.34487C0.254076 8.76153 0.566576 8.98028 1.00408 9.00112H4.50408L2.09783 14.5949C1.91033 15.074 2.01449 15.4803 2.41033 15.8136C2.84783 16.0844 3.26449 16.0636 3.66033 15.7511L11.6603 8.75112C11.9937 8.43862 12.0874 8.07403 11.9416 7.65737C11.7749 7.2407 11.4624 7.02195 11.0041 7.00112H7.53533L9.91033 1.40737V1.40737V1.40737" fill="var(--fill-0, #4F46E5)"/>
</g>
</svg>
