<svg preserveAspectRatio="none" width="100%" height="100%" overflow="visible" style="display: block;" viewBox="0 0 17.5021 14" fill="none" xmlns="http://www.w3.org/2000/svg">
<g id="Container">
<path id="Symbol" d="M6.125 7C6.76302 7 7.34635 6.84505 7.875 6.53516V6.53516C8.40365 6.22526 8.83203 5.79688 9.16016 5.25C9.47005 4.70312 9.625 4.11979 9.625 3.5C9.625 2.88021 9.47005 2.29688 9.16016 1.75C8.83203 1.20312 8.40365 0.77474 7.875 0.464844C7.34635 0.154948 6.76302 0 6.125 0C5.48698 0 4.90365 0.154948 4.375 0.464844C3.84635 0.77474 3.41797 1.20312 3.08984 1.75C2.77995 2.29688 2.625 2.88021 2.625 3.5C2.625 4.11979 2.77995 4.70312 3.08984 5.25C3.41797 5.79688 3.84635 6.22526 4.375 6.53516C4.90365 6.84505 5.48698 7 6.125 7V7V7M4.86719 8.3125C3.5 8.34896 2.35156 8.82292 1.42188 9.73438V9.73438C0.510417 10.6641 0.0364583 11.8125 0 13.1797C0 13.4167 0.0820312 13.6081 0.246094 13.7539C0.391927 13.918 0.583333 14 0.820312 14H11.4297C11.4844 14 11.5391 14 11.5938 14C10.5547 13.1979 9.83464 12.2956 9.43359 11.293C9.01432 10.2721 8.78646 9.34245 8.75 8.50391C8.3125 8.3763 7.85677 8.3125 7.38281 8.3125H4.86719V8.3125V8.3125M13.3164 6.17969L10.0352 7.49219C9.77995 7.60156 9.64323 7.80208 9.625 8.09375C9.60677 8.69531 9.70703 9.36979 9.92578 10.1172C10.1263 10.8646 10.4909 11.5846 11.0195 12.2773C11.5664 12.9701 12.332 13.526 13.3164 13.9453C13.4805 14.0182 13.6445 14.0182 13.8086 13.9453C14.793 13.526 15.5586 12.9701 16.1055 12.2773C16.6341 11.5846 16.9987 10.8646 17.1992 10.1172C17.418 9.36979 17.5182 8.69531 17.5 8.09375C17.4818 7.80208 17.3451 7.60156 17.0898 7.49219L13.8086 6.17969C13.6445 6.10677 13.4805 6.10677 13.3164 6.17969V6.17969V6.17969M16.1602 8.53125C16.1237 9.26042 15.9141 9.9987 15.5312 10.7461V10.7461C15.1302 11.5117 14.474 12.1406 13.5625 12.6328V7.49219L16.1602 8.53125V8.53125V8.53125" fill="var(--fill-0, #4B5563)"/>
</g>
</svg>
