<svg preserveAspectRatio="none" width="100%" height="100%" overflow="visible" style="display: block;" viewBox="0 0 40.5 36" fill="none" xmlns="http://www.w3.org/2000/svg">
<g id="Frame">
<g clip-path="url(#clip0_0_12)">
<path id="Vector" d="M6.23672 15.7359L0 26.4234V6.75C0 4.26797 2.01797 2.25 4.5 2.25H12.7617C13.957 2.25 15.1031 2.72109 15.9469 3.56484L17.8102 5.42812C18.6539 6.27187 19.8 6.74297 20.9953 6.74297H29.25C31.732 6.74297 33.75 8.76094 33.75 11.243V13.493H10.125C8.52188 13.493 7.04531 14.3437 6.23672 15.7289V15.7359ZM8.17734 16.868C8.58516 16.1719 9.32344 15.75 10.125 15.75H38.25C39.0586 15.75 39.7969 16.1789 40.1977 16.882C40.5984 17.5852 40.5984 18.443 40.1906 19.1391L32.3156 32.6391C31.9148 33.3281 31.1766 33.75 30.375 33.75H2.25C1.44141 33.75 0.703125 33.3211 0.302344 32.618C-0.0984375 31.9148 -0.0984375 31.057 0.309375 30.3609L8.18438 16.8609L8.17734 16.868Z" fill="var(--fill-0, #3A46E5)"/>
</g>
</g>
<defs>
<clipPath id="clip0_0_12">
<path d="M0 0H40.5V36H0V0Z" fill="white"/>
</clipPath>
</defs>
</svg>
