<svg preserveAspectRatio="none" width="100%" height="100%" overflow="visible" style="display: block;" viewBox="0 0 40.5 36" fill="none" xmlns="http://www.w3.org/2000/svg">
<g id="Frame">
<g clip-path="url(#clip0_0_41)">
<path id="Vector" d="M0 4.5C0 2.01797 2.01797 0 4.5 0H15.75V9C15.75 10.2445 16.7555 11.25 18 11.25H27V13.9641C21.8039 15.4336 18 20.2078 18 25.875C18 30.0305 20.0461 33.7008 23.182 35.9508C22.957 35.9859 22.732 36 22.5 36H4.5C2.01797 36 0 33.982 0 31.5V4.5ZM27 9H18V0L27 9ZM20.25 25.875C20.25 23.1897 21.3167 20.6144 23.2155 18.7155C25.1144 16.8167 27.6897 15.75 30.375 15.75C33.0603 15.75 35.6356 16.8167 37.5345 18.7155C39.4333 20.6144 40.5 23.1897 40.5 25.875C40.5 28.5603 39.4333 31.1356 37.5345 33.0345C35.6356 34.9333 33.0603 36 30.375 36C27.6897 36 25.1144 34.9333 23.2155 33.0345C21.3167 31.1356 20.25 28.5603 20.25 25.875ZM35.107 22.8305C34.6711 22.3945 33.9539 22.3945 33.518 22.8305L29.25 27.0984L27.232 25.0805C26.7961 24.6445 26.0789 24.6445 25.643 25.0805C25.207 25.5164 25.207 26.2336 25.643 26.6695L28.4555 29.482C28.8914 29.918 29.6086 29.918 30.0445 29.482L35.107 24.4195C35.543 23.9836 35.543 23.2664 35.107 22.8305Z" fill="var(--fill-0, #3A46E5)"/>
</g>
</g>
<defs>
<clipPath id="clip0_0_41">
<path d="M0 0H40.5V36H0V0Z" fill="white"/>
</clipPath>
</defs>
</svg>
