<svg preserveAspectRatio="none" width="100%" height="100%" overflow="visible" style="display: block;" viewBox="0 0 18 16" fill="none" xmlns="http://www.w3.org/2000/svg">
<g id="Frame">
<path d="M18 16H0V0H18V16Z" stroke="var(--stroke-0, #E5E7EB)"/>
<path id="Vector" d="M2.77187 6.99375L0 11.7437V3C0 1.89688 0.896875 1 2 1H5.67188C6.20312 1 6.7125 1.20938 7.0875 1.58438L7.91563 2.4125C8.29063 2.7875 8.8 2.99688 9.33125 2.99688H13C14.1031 2.99688 15 3.89375 15 4.99687V5.99687H4.5C3.7875 5.99687 3.13125 6.375 2.77187 6.99062V6.99375ZM3.63438 7.49687C3.81563 7.1875 4.14375 7 4.5 7H17C17.3594 7 17.6875 7.19063 17.8656 7.50313C18.0438 7.81563 18.0437 8.19688 17.8625 8.50625L14.3625 14.5063C14.1844 14.8125 13.8562 15 13.5 15H1C0.640625 15 0.3125 14.8094 0.134375 14.4969C-0.04375 14.1844 -0.04375 13.8031 0.1375 13.4937L3.6375 7.49375L3.63438 7.49687Z" fill="var(--fill-0, #2F35CA)"/>
</g>
</svg>
