<svg preserveAspectRatio="none" width="100%" height="100%" overflow="visible" style="display: block;" viewBox="0 0 16 14" fill="none" xmlns="http://www.w3.org/2000/svg">
<g id="Container">
<path id="Symbol" d="M3 2C3.02083 1.4375 3.21875 0.96875 3.59375 0.59375V0.59375C3.96875 0.21875 4.4375 0.0208333 5 0H14C14.5625 0.0208333 15.0312 0.21875 15.4062 0.59375C15.7812 0.96875 15.9792 1.4375 16 2V12C15.9792 12.5625 15.7812 13.0312 15.4062 13.4062C15.0312 13.7812 14.5625 13.9792 14 14H2.5C1.79167 13.9792 1.19792 13.7396 0.71875 13.2812C0.260417 12.8021 0.0208333 12.2083 0 11.5V3C0 2.70833 0.09375 2.46875 0.28125 2.28125C0.46875 2.09375 0.708333 2 1 2C1.29167 2 1.53125 2.09375 1.71875 2.28125C1.90625 2.46875 2 2.70833 2 3V11.5C2.02083 11.8125 2.1875 11.9792 2.5 12C2.8125 11.9792 2.97917 11.8125 3 11.5V2V2V2M5 2.75V5.25C5.04167 5.70833 5.29167 5.95833 5.75 6H9.25C9.70833 5.95833 9.95833 5.70833 10 5.25V2.75C9.95833 2.29167 9.70833 2.04167 9.25 2H5.75C5.29167 2.04167 5.04167 2.29167 5 2.75V2.75V2.75M11.5 2.5C11.5208 2.8125 11.6875 2.97917 12 3H13.5C13.8125 2.97917 13.9792 2.8125 14 2.5C13.9792 2.1875 13.8125 2.02083 13.5 2H12C11.6875 2.02083 11.5208 2.1875 11.5 2.5V2.5V2.5M11.5 5.5C11.5208 5.8125 11.6875 5.97917 12 6H13.5C13.8125 5.97917 13.9792 5.8125 14 5.5C13.9792 5.1875 13.8125 5.02083 13.5 5H12C11.6875 5.02083 11.5208 5.1875 11.5 5.5V5.5V5.5M5 8.5C5.02083 8.8125 5.1875 8.97917 5.5 9H13.5C13.8125 8.97917 13.9792 8.8125 14 8.5C13.9792 8.1875 13.8125 8.02083 13.5 8H5.5C5.1875 8.02083 5.02083 8.1875 5 8.5V8.5V8.5M5 11.5C5.02083 11.8125 5.1875 11.9792 5.5 12H13.5C13.8125 11.9792 13.9792 11.8125 14 11.5C13.9792 11.1875 13.8125 11.0208 13.5 11H5.5C5.1875 11.0208 5.02083 11.1875 5 11.5V11.5V11.5" fill="var(--fill-0, #4F46E5)"/>
</g>
</svg>