<svg preserveAspectRatio="none" width="100%" height="100%" overflow="visible" style="display: block;" viewBox="0 0 17.5 20" fill="none" xmlns="http://www.w3.org/2000/svg">
<g id="SVG">
<path id="Vector" d="M0 2.5C0 1.12109 1.12109 0 2.5 0H15C16.3789 0 17.5 1.12109 17.5 2.5V17.5C17.5 18.8789 16.3789 20 15 20H2.5C1.12109 20 0 18.8789 0 17.5V2.5V2.5M7.14844 10.8906C6.05859 10.375 5.25781 9.35156 5.05078 8.125H6.57812C6.64062 9.3125 6.87891 10.2266 7.14844 10.8906V10.8906M8.76172 11.25H8.75H8.73828C8.64453 11.1133 8.51562 10.9023 8.38281 10.6055C8.14844 10.0742 7.89844 9.26562 7.82812 8.125H9.66797C9.59766 9.26562 9.35156 10.0742 9.11328 10.6055C8.98047 10.9023 8.85156 11.1133 8.75781 11.25H8.76172M10.3516 10.8906C10.6172 10.2227 10.8555 9.3125 10.9219 8.125H12.4492C12.2422 9.35156 11.4414 10.375 10.3516 10.8906V10.8906M10.9219 6.875C10.8594 5.6875 10.6211 4.77344 10.3516 4.10938C11.4414 4.625 12.2422 5.64844 12.4492 6.875H10.9219V6.875M8.73828 3.75H8.75H8.76172C8.85547 3.88672 8.98438 4.09766 9.11719 4.39453C9.35156 4.92578 9.60156 5.73438 9.67188 6.875H7.83203C7.90234 5.73438 8.14844 4.92578 8.38672 4.39453C8.51953 4.09766 8.64844 3.88672 8.74219 3.75H8.73828M7.14844 4.10938C6.88281 4.77734 6.64453 5.6875 6.57812 6.875H5.05078C5.25781 5.64844 6.05859 4.625 7.14844 4.10938V4.10938M13.75 7.5C13.75 4.74042 11.5096 2.5 8.75 2.5C5.99042 2.5 3.75 4.74042 3.75 7.5C3.75 10.2596 5.99042 12.5 8.75 12.5C11.5096 12.5 13.75 10.2596 13.75 7.5V7.5M4.375 15C4.03125 15 3.75 15.2812 3.75 15.625Cnan nan 4.03125 16.25 4.375 16.25H13.125C13.4688 16.25 13.75 15.9688 13.75 15.625Cnan nan 13.4688 15 13.125 15H4.375V15" fill="var(--fill-0, white)"/>
</g>
</svg>
