<svg preserveAspectRatio="none" width="100%" height="100%" overflow="visible" style="display: block;" viewBox="0 0 17.5 12.9704" fill="none" xmlns="http://www.w3.org/2000/svg">
<g id="Container">
<path id="Symbol" d="M10.418 2.11498L5.08594 0.118886C4.61198 -0.0634058 4.14714 -0.036062 3.69141 0.200917L2.43359 0.80248C2.28776 0.893625 2.20573 1.02123 2.1875 1.18529C2.1875 1.34935 2.26042 1.47696 2.40625 1.5681L6.42578 4.16576L3.71875 5.53295L2.13281 4.82201C1.8776 4.71264 1.63151 4.72175 1.39453 4.84935L0.492188 5.28685C0.236979 5.46915 0.191406 5.69701 0.355469 5.97045L2.35156 8.29467C2.53385 8.49519 2.76172 8.59545 3.03516 8.59545H6.78125C6.92708 8.59545 7.0638 8.5681 7.19141 8.51342L14.6562 4.76732C15.9505 4.09284 16.862 3.07201 17.3906 1.70482C17.5182 1.34024 17.4818 1.02123 17.2812 0.747792C17.0807 0.456125 16.7891 0.301178 16.4062 0.282948H14.8477C14.2826 0.282948 13.7539 0.410553 13.2617 0.665761L10.418 2.11498V2.11498V2.11498M0 12.0954C0 12.3507 0.0820312 12.5603 0.246094 12.7244V12.7244C0.410156 12.8884 0.619792 12.9704 0.875 12.9704H16.625C16.8802 12.9704 17.0898 12.8884 17.2539 12.7244C17.418 12.5603 17.5 12.3507 17.5 12.0954C17.5 11.8402 17.418 11.6306 17.2539 11.4665C17.0898 11.3025 16.8802 11.2204 16.625 11.2204H0.875C0.619792 11.2204 0.410156 11.3025 0.246094 11.4665C0.0820312 11.6306 0 11.8402 0 12.0954V12.0954V12.0954" fill="var(--fill-0, white)"/>
</g>
</svg>