<svg preserveAspectRatio="none" width="100%" height="100%" overflow="visible" style="display: block;" viewBox="0 0 8.75 10" fill="none" xmlns="http://www.w3.org/2000/svg">
<g id="Frame">
<g clip-path="url(#clip0_0_14)">
<path id="Vector" d="M2.8125 2.8125V3.75H5.9375V2.8125C5.9375 1.94922 5.23828 1.25 4.375 1.25C3.51172 1.25 2.8125 1.94922 2.8125 2.8125ZM1.5625 3.75V2.8125C1.5625 1.25977 2.82227 0 4.375 0C5.92773 0 7.1875 1.25977 7.1875 2.8125V3.75H7.5C8.18945 3.75 8.75 4.31055 8.75 5V8.75C8.75 9.43945 8.18945 10 7.5 10H1.25C0.560547 10 0 9.43945 0 8.75V5C0 4.31055 0.560547 3.75 1.25 3.75H1.5625Z" fill="var(--fill-0, #64748B)"/>
</g>
</g>
<defs>
<clipPath id="clip0_0_14">
<path d="M0 0H8.75V10H0V0Z" fill="white"/>
</clipPath>
</defs>
</svg>
