<svg preserveAspectRatio="none" width="100%" height="100%" overflow="visible" style="display: block;" viewBox="0 0 18 16" fill="none" xmlns="http://www.w3.org/2000/svg">
<g id="Frame">
<g clip-path="url(#clip0_0_10)">
<path id="Vector" d="M9 2.5C6.9625 2.5 5.2875 3.425 4.00313 4.61562C2.8 5.73437 1.96875 7.0625 1.54375 8C1.96875 8.9375 2.8 10.2656 4 11.3844C5.2875 12.575 6.9625 13.5 9 13.5C11.0375 13.5 12.7125 12.575 13.9969 11.3844C15.2 10.2656 16.0312 8.9375 16.4562 8C16.0312 7.0625 15.2 5.73437 14 4.61562C12.7125 3.425 11.0375 2.5 9 2.5ZM2.98125 3.51875C4.45312 2.15 6.475 1 9 1C11.525 1 13.5469 2.15 15.0188 3.51875C16.4813 4.87812 17.4594 6.5 17.925 7.61562C18.0281 7.8625 18.0281 8.1375 17.925 8.38437C17.4594 9.5 16.4813 11.125 15.0188 12.4812C13.5469 13.85 11.525 15 9 15C6.475 15 4.45312 13.85 2.98125 12.4812C1.51875 11.125 0.540625 9.5 0.078125 8.38437C-0.025 8.1375 -0.025 7.8625 0.078125 7.61562C0.540625 6.5 1.51875 4.875 2.98125 3.51875ZM9 10.5C10.3813 10.5 11.5 9.38125 11.5 8C11.5 6.61875 10.3813 5.5 9 5.5C8.97813 5.5 8.95938 5.5 8.9375 5.5C8.97813 5.65937 9 5.82812 9 6C9 7.10312 8.10313 8 7 8C6.82813 8 6.65938 7.97812 6.5 7.9375C6.5 7.95937 6.5 7.97813 6.5 8C6.5 9.38125 7.61875 10.5 9 10.5ZM9 4C10.0609 4 11.0783 4.42143 11.8284 5.17157C12.5786 5.92172 13 6.93913 13 8C13 9.06087 12.5786 10.0783 11.8284 10.8284C11.0783 11.5786 10.0609 12 9 12C7.93913 12 6.92172 11.5786 6.17157 10.8284C5.42143 10.0783 5 9.06087 5 8C5 6.93913 5.42143 5.92172 6.17157 5.17157C6.92172 4.42143 7.93913 4 9 4Z" fill="var(--fill-0, #9CA3AF)"/>
</g>
</g>
<defs>
<clipPath id="clip0_0_10">
<path d="M0 0H18V16H0V0Z" fill="white"/>
</clipPath>
</defs>
</svg>
