<svg preserveAspectRatio="none" width="100%" height="100%" overflow="visible" style="display: block;" viewBox="0 0 12.25 14" fill="none" xmlns="http://www.w3.org/2000/svg">
<g id="Frame">
<g clip-path="url(#clip0_0_28)">
<path id="Vector" d="M1.3125 2.625V11.375C1.3125 11.6156 1.50937 11.8125 1.75 11.8125H10.5C10.7406 11.8125 10.9375 11.6156 10.9375 11.375V4.66211C10.9375 4.54727 10.891 4.43516 10.809 4.35312L11.7359 3.42617C12.0641 3.7543 12.2473 4.2 12.2473 4.66484V11.375C12.2473 12.3402 11.4625 13.125 10.4973 13.125H1.75C0.784766 13.125 0 12.3402 0 11.375V2.625C0 1.65977 0.784766 0.875 1.75 0.875H8.46289C8.92773 0.875 9.37344 1.0582 9.70156 1.38633L11.7387 3.42344L10.8117 4.35039L8.77187 2.31602C8.76367 2.30781 8.7582 2.30234 8.75 2.29414V5.03125C8.75 5.39492 8.45742 5.6875 8.09375 5.6875H2.84375C2.48008 5.6875 2.1875 5.39492 2.1875 5.03125V2.1875H1.75C1.50937 2.1875 1.3125 2.38437 1.3125 2.625ZM3.5 2.1875V4.375H7.4375V2.1875H3.5ZM4.375 8.75C4.375 8.28587 4.55937 7.84075 4.88756 7.51256C5.21575 7.18437 5.66087 7 6.125 7C6.58913 7 7.03425 7.18437 7.36244 7.51256C7.69063 7.84075 7.875 8.28587 7.875 8.75C7.875 9.21413 7.69063 9.65925 7.36244 9.98744C7.03425 10.3156 6.58913 10.5 6.125 10.5C5.66087 10.5 5.21575 10.3156 4.88756 9.98744C4.55937 9.65925 4.375 9.21413 4.375 8.75Z" fill="var(--fill-0, #64748B)"/>
</g>
</g>
<defs>
<clipPath id="clip0_0_28">
<path d="M0 0H12.25V14H0V0Z" fill="white"/>
</clipPath>
</defs>
</svg>
