<svg preserveAspectRatio="none" width="100%" height="100%" overflow="visible" style="display: block;" viewBox="0 0 13.1279 13.918" fill="none" xmlns="http://www.w3.org/2000/svg">
<g id="Container">
<path id="Symbol" d="M6.56394 0C6.69154 0 6.81003 0.0273438 6.91941 0.0820312L12.0874 2.26953C12.3973 2.39714 12.6434 2.59766 12.8257 2.87109C13.0262 3.14453 13.1264 3.46354 13.1264 3.82812C13.1447 4.75781 12.9897 5.85156 12.6616 7.10938C12.3335 8.36719 11.741 9.58854 10.8843 10.7734C10.0457 11.9766 8.84258 12.9701 7.27488 13.7539C6.80092 13.9727 6.32696 13.9727 5.853 13.7539C4.28529 12.9701 3.08217 11.9766 2.24363 10.7734C1.38686 9.58854 0.794408 8.36719 0.466283 7.10938C0.138158 5.85156 -0.01679 4.75781 0.00143914 3.82812C0.00143914 3.46354 0.1017 3.14453 0.30222 2.87109C0.484512 2.59766 0.730606 2.39714 1.0405 2.26953L6.20847 0.0820312C6.31785 0.0273438 6.43633 0 6.56394 0V0V0M6.56394 1.83203V12.168C7.80352 11.5299 8.77878 10.7188 9.48972 9.73438C10.1824 8.75 10.6746 7.73828 10.9663 6.69922C11.2397 5.64193 11.3764 4.69401 11.3764 3.85547L6.56394 1.83203V1.83203V1.83203V1.83203" fill="var(--fill-0, #4B5563)"/>
</g>
</svg>