<svg width="17" height="20" viewBox="0 0 17 20" fill="none" xmlns="http://www.w3.org/2000/svg">
  <path d="M13.598 10.649c-.022-2.432 1.988-3.608 2.078-3.664-1.134-1.657-2.894-1.884-3.52-1.906-1.492-.152-2.925.88-3.683.88-.77 0-1.95-.861-3.21-.836-1.643.024-3.162.956-4.007 2.42-1.715 2.968-.438 7.358 1.228 9.764.821 1.18 1.797 2.503 3.08 2.455 1.24-.05 1.708-.797 3.208-.797 1.489 0 1.915.797 3.218.771 1.332-.022 2.175-1.195 2.986-2.381.948-1.364 1.335-2.692 1.352-2.76-.03-.012-2.587-.99-2.73-3.946zM11.17 3.374C11.836 2.56 12.29 1.44 12.163.3c-1.003.043-2.224.668-2.943 1.48C8.538 2.578 8.01 3.72 8.155 4.834c1.11.086 2.245-.564 3.015-1.46z" fill="#000"/>
</svg>