<svg preserveAspectRatio="none" width="100%" height="100%" overflow="visible" style="display: block;" viewBox="0 0 12 12" fill="none" xmlns="http://www.w3.org/2000/svg">
<g id="Frame">
<g clip-path="url(#clip0_0_12)">
<path id="Vector" d="M6 0C6.10781 0 6.21562 0.0234375 6.31406 0.0679688L10.7273 1.94063C11.243 2.15859 11.6273 2.66719 11.625 3.28125C11.6133 5.60625 10.657 9.86016 6.61875 11.7938C6.22734 11.9813 5.77266 11.9813 5.38125 11.7938C1.34297 9.86016 0.386719 5.60625 0.375 3.28125C0.372656 2.66719 0.757031 2.15859 1.27266 1.94063L5.68828 0.0679688C5.78437 0.0234375 5.89219 0 6 0ZM6 1.56563V10.425C9.23437 8.85938 10.1039 5.39297 10.125 3.31406L6 1.56563Z" fill="var(--fill-0, #16A34A)"/>
</g>
</g>
<defs>
<clipPath id="clip0_0_12">
<path d="M0 0H12V12H0V0Z" fill="white"/>
</clipPath>
</defs>
</svg>