<svg preserveAspectRatio="none" width="100%" height="100%" overflow="visible" style="display: block;" viewBox="0 0 12.25 8.75" fill="none" xmlns="http://www.w3.org/2000/svg">
<g id="Container">
<path id="Symbol" d="M12.0039 0.246094C12.168 0.428385 12.25 0.638021 12.25 0.875V0.875C12.25 1.11198 12.168 1.32161 12.0039 1.50391L5.00391 8.50391C4.82161 8.66797 4.61198 8.75 4.375 8.75C4.13802 8.75 3.92839 8.66797 3.74609 8.50391L0.246094 5.00391C0.0820312 4.82161 0 4.61198 0 4.375C0 4.13802 0.0820312 3.92839 0.246094 3.74609C0.428385 3.58203 0.638021 3.5 0.875 3.5C1.11198 3.5 1.32161 3.58203 1.50391 3.74609L4.375 6.64453L10.7461 0.246094C10.9284 0.0820312 11.138 0 11.375 0C11.612 0 11.8216 0.0820312 12.0039 0.246094V0.246094V0.246094" fill="var(--fill-0, white)"/>
</g>
</svg>