<svg preserveAspectRatio="none" width="100%" height="100%" overflow="visible" style="display: block;" viewBox="0 0 13.5 12" fill="none" xmlns="http://www.w3.org/2000/svg">
<g id="Frame">
<g clip-path="url(#clip0_0_57)">
<path id="Vector" d="M9 3.75C8.58516 3.75 8.25 3.41484 8.25 3C8.25 2.58516 8.58516 2.25 9 2.25H12.75C13.1648 2.25 13.5 2.58516 13.5 3V6.75C13.5 7.16484 13.1648 7.5 12.75 7.5C12.3352 7.5 12 7.16484 12 6.75V4.81172L8.02969 8.77969C7.73672 9.07266 7.26094 9.07266 6.96797 8.77969L4.5 6.31172L1.27969 9.52969C0.986719 9.82266 0.510938 9.82266 0.217969 9.52969C-0.075 9.23672 -0.075 8.76094 0.217969 8.46797L3.96797 4.71797C4.26094 4.425 4.73672 4.425 5.02969 4.71797L7.5 7.18828L10.9383 3.75H9Z" fill="var(--fill-0, #059669)"/>
</g>
</g>
<defs>
<clipPath id="clip0_0_57">
<path d="M0 0H13.5V12H0V0Z" fill="white"/>
</clipPath>
</defs>
</svg>
