<svg width="20" height="20" viewBox="0 0 17.5 20" fill="none" xmlns="http://www.w3.org/2000/svg">
<g id="Frame">
<g clip-path="url(#clip0_0_6)">
<path id="Vector" d="M0 2.5C0 1.12109 1.12109 0 2.5 0H15C16.3789 0 17.5 1.12109 17.5 2.5V17.5C17.5 18.8789 16.3789 20 15 20H2.5C1.12109 20 0 18.8789 0 17.5V2.5ZM7.14844 10.8906C6.05859 10.375 5.25781 9.35156 5.05078 8.125H6.57812C6.64062 9.3125 6.87891 10.2266 7.14844 10.8906ZM8.76172 11.25H8.75H8.73828C8.64453 11.1133 8.51563 10.9023 8.38281 10.6055C8.14844 10.0742 7.89844 9.26563 7.82812 8.125H9.66797C9.59766 9.26563 9.35156 10.0742 9.11328 10.6055C8.98047 10.9023 8.85156 11.1133 8.75781 11.25H8.76172ZM10.3516 10.8906C10.6172 10.2227 10.8555 9.3125 10.9219 8.125H12.4492C12.2422 9.35156 11.4414 10.375 10.3516 10.8906ZM10.9219 6.875C10.8594 5.6875 10.6211 4.77344 10.3516 4.10937C11.4414 4.625 12.2422 5.64844 12.4492 6.875H10.9219ZM8.73828 3.75H8.75H8.76172C8.85547 3.88672 8.98437 4.09766 9.11719 4.39453C9.35156 4.92578 9.60156 5.73437 9.67188 6.875H7.83203C7.90234 5.73437 8.14844 4.92578 8.38672 4.39453C8.51953 4.09766 8.64844 3.88672 8.74219 3.75H8.73828ZM7.14844 4.10937C6.88281 4.77734 6.64453 5.6875 6.57812 6.875H5.05078C5.25781 5.64844 6.05859 4.625 7.14844 4.10937ZM13.75 7.5C13.75 6.17392 13.2232 4.90215 12.2855 3.96447C11.3479 3.02678 10.0761 2.5 8.75 2.5C7.42392 2.5 6.15215 3.02678 5.21447 3.96447C4.27678 4.90215 3.75 6.17392 3.75 7.5C3.75 8.82608 4.27678 10.0979 5.21447 11.0355C6.15215 11.9732 7.42392 12.5 8.75 12.5C10.0761 12.5 11.3479 11.9732 12.2855 11.0355C13.2232 10.0979 13.75 8.82608 13.75 7.5ZM4.375 15C4.03125 15 3.75 15.2812 3.75 15.625C3.75 15.9688 4.03125 16.25 4.375 16.25H13.125C13.4688 16.25 13.75 15.9688 13.75 15.625C13.75 15.2812 13.4688 15 13.125 15H4.375Z" fill="white"/>
</g>
</g>
<defs>
<clipPath id="clip0_0_6">
<path d="M0 0H17.5V20H0V0Z" fill="white"/>
</clipPath>
</defs>
</svg>
