<svg preserveAspectRatio="none" width="100%" height="100%" overflow="visible" style="display: block;" viewBox="0 0 14 14" fill="none" xmlns="http://www.w3.org/2000/svg">
<g id="SVG">
<path id="Vector" d="M7 0.875C7.38828 0.875 7.74648 1.08008 7.94336 1.41641L13.8496 11.4789C14.0492 11.818 14.0492 12.2363 13.8551 12.5754C13.6609 12.9145 13.2973 13.125 12.9063 13.125H1.09375C0.702734 13.125 0.339062 12.9145 0.144922 12.5754C-0.0492188 12.2363 -0.0464844 11.8152 0.150391 11.4789L6.05664 1.41641C6.25352 1.08008 6.61172 0.875 7 0.875V0.875M7 4.375C6.63633 4.375 6.34375 4.66758 6.34375 5.03125V8.09375C6.34375 8.45742 6.63633 8.75 7 8.75Cnan nan 7.65625 8.45742 7.65625 8.09375V5.03125C7.65625 4.66758 7.36367 4.375 7 4.375V4.375M7.875 10.5C7.875 10.0171 7.48293 9.625 7 9.625C6.51707 9.625 6.125 10.0171 6.125 10.5C6.125 10.9829 6.51707 11.375 7 11.375C7.48293 11.375 7.875 10.9829 7.875 10.5V10.5" fill="var(--fill-0, #CA8A04)"/>
</g>
</svg>
