<svg preserveAspectRatio="none" width="100%" height="100%" overflow="visible" style="display: block;" viewBox="0 0 14.0101 16" fill="none" xmlns="http://www.w3.org/2000/svg">
<g id="Container">
<path id="Symbol" d="M7.0125 0C6.72083 0 6.48125 0.09375 6.29375 0.28125V0.28125V0.28125C6.10625 0.46875 6.0125 0.708333 6.0125 1V1.59375V1.59375C4.84583 1.84375 3.89792 2.41667 3.16875 3.3125C2.41875 4.20833 2.03333 5.27083 2.0125 6.5V7.28125V7.28125C1.99167 8.73958 1.53333 10.0417 0.6375 11.1875L0.16875 11.7812V11.7812C-0.01875 12.0312 -0.05 12.2917 0.075 12.5625C0.220833 12.8333 0.45 12.9792 0.7625 13H13.2625V13C13.575 12.9792 13.8042 12.8333 13.95 12.5625C14.0542 12.2917 14.0229 12.0312 13.8562 11.7812L13.3875 11.1875V11.1875C12.4917 10.0417 12.0333 8.73958 12.0125 7.28125V6.5V6.5C11.9917 5.27083 11.6062 4.20833 10.8562 3.3125C10.1271 2.41667 9.17917 1.84375 8.0125 1.59375V1V1C8.0125 0.708333 7.91875 0.46875 7.73125 0.28125C7.54375 0.09375 7.30417 0 7.0125 0V0V0M7.0125 3C8.0125 3.02083 8.83542 3.36458 9.48125 4.03125V4.03125V4.03125C10.1479 4.67708 10.4917 5.5 10.5125 6.5V7.28125V7.28125C10.5125 8.82292 10.9292 10.2292 11.7625 11.5H2.2625V11.5C3.075 10.2292 3.49167 8.82292 3.5125 7.28125V6.5V6.5C3.53333 5.5 3.87708 4.67708 4.54375 4.03125C5.18958 3.36458 6.0125 3.02083 7.0125 3V3V3M9.0125 14H7.0125H9.0125H5.0125C5.0125 14.5417 5.21042 15.0104 5.60625 15.4062C6.00208 15.8021 6.47083 16 7.0125 16C7.55417 16 8.02292 15.8021 8.41875 15.4062C8.81458 15.0104 9.0125 14.5417 9.0125 14V14V14" fill="var(--fill-0, #6B7280)"/>
</g>
</svg>
