<svg preserveAspectRatio="none" width="100%" height="100%" overflow="visible" style="display: block;" viewBox="0 0 12.25 14" fill="none" xmlns="http://www.w3.org/2000/svg">
<g id="Container">
<path id="Symbol" d="M10.5 9.1875H5.25H10.5H5.25C4.97656 9.16927 4.83073 9.02344 4.8125 8.75V1.75V1.75C4.83073 1.47656 4.97656 1.33073 5.25 1.3125H9.07812V1.3125L10.9375 3.17188V3.17188V8.75V8.75C10.9193 9.02344 10.7734 9.16927 10.5 9.1875V9.1875V9.1875M5.25 10.5H10.5H5.25H10.5C10.9922 10.4818 11.4023 10.3086 11.7305 9.98047C12.0586 9.65234 12.2318 9.24219 12.25 8.75V3.17188V3.17188C12.25 2.80729 12.1224 2.4974 11.8672 2.24219L10.0078 0.382812V0.382812C9.7526 0.127604 9.44271 0 9.07812 0H5.25V0C4.75781 0.0182292 4.34766 0.191406 4.01953 0.519531C3.69141 0.847656 3.51823 1.25781 3.5 1.75V8.75V8.75C3.51823 9.24219 3.69141 9.65234 4.01953 9.98047C4.34766 10.3086 4.75781 10.4818 5.25 10.5V10.5V10.5M1.75 3.5C1.25781 3.51823 0.847656 3.69141 0.519531 4.01953V4.01953V4.01953C0.191406 4.34766 0.0182292 4.75781 0 5.25V12.25V12.25C0.0182292 12.7422 0.191406 13.1523 0.519531 13.4805C0.847656 13.8086 1.25781 13.9818 1.75 14H7V14C7.49219 13.9818 7.90234 13.8086 8.23047 13.4805C8.55859 13.1523 8.73177 12.7422 8.75 12.25V11.375V11.375H7.4375V11.375V12.25V12.25C7.41927 12.5234 7.27344 12.6693 7 12.6875H1.75V12.6875C1.47656 12.6693 1.33073 12.5234 1.3125 12.25V5.25V5.25C1.33073 4.97656 1.47656 4.83073 1.75 4.8125H2.625V4.8125V3.5V3.5H1.75V3.5V3.5" fill="var(--fill-0, #374151)"/>
</g>
</svg>
