<svg preserveAspectRatio="none" width="100%" height="100%" overflow="visible" style="display: block;" viewBox="0 0 18 14" fill="none" xmlns="http://www.w3.org/2000/svg">
<g id="Container">
<path id="Symbol" d="M8.98438 1.5C7.96354 1.52083 7.03646 1.72917 6.20312 2.125V2.125V2.125C5.36979 2.5 4.63021 3 3.98438 3.625C3.38021 4.1875 2.86979 4.77083 2.45312 5.375C2.05729 5.97917 1.74479 6.52083 1.51562 7C1.74479 7.47917 2.05729 8.02083 2.45312 8.625C2.86979 9.22917 3.38021 9.8125 3.98438 10.375C4.63021 11 5.36979 11.5 6.20312 11.875C7.03646 12.2708 7.96354 12.4792 8.98438 12.5C10.0052 12.4792 10.9323 12.2708 11.7656 11.875C12.599 11.5 13.3385 11 13.9844 10.375C14.5885 9.8125 15.099 9.22917 15.5156 8.625C15.9115 8.02083 16.224 7.47917 16.4531 7C16.224 6.52083 15.9115 5.97917 15.5156 5.375C15.099 4.77083 14.5885 4.1875 13.9844 3.625C13.3385 3 12.599 2.5 11.7656 2.125C10.9323 1.72917 10.0052 1.52083 8.98438 1.5V1.5V1.5M2.95312 2.53125C3.70312 1.82292 4.57812 1.22917 5.57812 0.75V0.75V0.75C6.57812 0.270833 7.71354 0.0208333 8.98438 0C10.2552 0.0208333 11.3906 0.270833 12.3906 0.75C13.3906 1.22917 14.2656 1.82292 15.0156 2.53125C15.7448 3.21875 16.349 3.92708 16.8281 4.65625C17.3073 5.38542 17.6719 6.04167 17.9219 6.625C18.026 6.875 18.026 7.125 17.9219 7.375C17.6719 7.95833 17.3073 8.61458 16.8281 9.34375C16.349 10.0729 15.7448 10.7812 15.0156 11.4688C14.2656 12.1771 13.3906 12.7708 12.3906 13.25C11.3906 13.7292 10.2552 13.9792 8.98438 14C7.71354 13.9792 6.57812 13.7292 5.57812 13.25C4.57812 12.7708 3.70312 12.1771 2.95312 11.4688C2.22396 10.7812 1.61979 10.0729 1.14062 9.34375C0.661458 8.61458 0.307292 7.95833 0.078125 7.375C-0.0260417 7.125 -0.0260417 6.875 0.078125 6.625C0.307292 6.04167 0.661458 5.38542 1.14062 4.65625C1.61979 3.92708 2.22396 3.21875 2.95312 2.53125V2.53125V2.53125M8.98438 9.5C9.69271 9.47917 10.2865 9.23958 10.7656 8.78125V8.78125V8.78125C11.224 8.30208 11.4635 7.70833 11.4844 7C11.4635 6.29167 11.224 5.69792 10.7656 5.21875C10.2865 4.76042 9.69271 4.52083 8.98438 4.5C8.96354 4.5 8.95312 4.5 8.95312 4.5C8.95312 4.5 8.94271 4.5 8.92188 4.5C8.96354 4.66667 8.98438 4.83333 8.98438 5C8.96354 5.5625 8.76562 6.03125 8.39062 6.40625C8.01562 6.78125 7.54688 6.97917 6.98438 7C6.81771 7 6.65104 6.97917 6.48438 6.9375C6.48438 6.95833 6.48438 6.96875 6.48438 6.96875C6.48438 6.96875 6.48438 6.97917 6.48438 7C6.50521 7.70833 6.74479 8.30208 7.20312 8.78125C7.68229 9.23958 8.27604 9.47917 8.98438 9.5V9.5V9.5M8.98438 3C9.71354 3 10.3802 3.17708 10.9844 3.53125V3.53125V3.53125C11.5885 3.88542 12.0781 4.375 12.4531 5C12.8073 5.625 12.9844 6.29167 12.9844 7C12.9844 7.70833 12.8073 8.375 12.4531 9C12.0781 9.625 11.5885 10.1146 10.9844 10.4688C10.3802 10.8229 9.71354 11 8.98438 11C8.25521 11 7.58854 10.8229 6.98438 10.4688C6.38021 10.1146 5.89062 9.625 5.51562 9C5.16146 8.375 4.98438 7.70833 4.98438 7C4.98438 6.29167 5.16146 5.625 5.51562 5C5.89062 4.375 6.38021 3.88542 6.98438 3.53125C7.58854 3.17708 8.25521 3 8.98438 3V3V3" fill="var(--fill-0, #6B7280)"/>
</g>
</svg>
