<svg preserveAspectRatio="none" width="100%" height="100%" overflow="visible" style="display: block;" viewBox="0 0 12.25 14" fill="none" xmlns="http://www.w3.org/2000/svg">
<path id="Symbol" d="M0 1.75C0.0182292 1.25781 0.191406 0.847656 0.519531 0.519531V0.519531V0.519531C0.847656 0.191406 1.25781 0.0182292 1.75 0H10.5V0C10.9922 0.0182292 11.4023 0.191406 11.7305 0.519531C12.0586 0.847656 12.2318 1.25781 12.25 1.75V12.25V12.25C12.2318 12.7422 12.0586 13.1523 11.7305 13.4805C11.4023 13.8086 10.9922 13.9818 10.5 14H1.75V14C1.25781 13.9818 0.847656 13.8086 0.519531 13.4805C0.191406 13.1523 0.0182292 12.7422 0 12.25V1.75V1.75V1.75M5.00391 7.62891C4.20182 7.22786 3.70964 6.58073 3.52734 5.6875H4.59375V5.6875C4.66667 6.50781 4.80339 7.15495 5.00391 7.62891V7.62891V7.62891M6.125 7.875V7.875V7.875V7.875V7.875V7.875C6.05208 7.78385 5.97005 7.63802 5.87891 7.4375C5.67839 7.05469 5.54167 6.47135 5.46875 5.6875H6.78125V5.6875C6.70833 6.47135 6.57161 7.05469 6.37109 7.4375C6.27995 7.63802 6.19792 7.78385 6.125 7.875V7.875V7.875M7.24609 7.62891C7.44661 7.15495 7.58333 6.50781 7.65625 5.6875H8.72266V5.6875C8.54036 6.58073 8.04818 7.22786 7.24609 7.62891V7.62891V7.62891M7.65625 4.8125C7.58333 3.99219 7.44661 3.34505 7.24609 2.87109C8.04818 3.27214 8.54036 3.91927 8.72266 4.8125H7.65625V4.8125V4.8125M6.125 2.625V2.625V2.625V2.625V2.625V2.625C6.19792 2.71615 6.27995 2.87109 6.37109 3.08984C6.57161 3.45443 6.70833 4.02865 6.78125 4.8125H5.49609V4.8125C5.55078 4.02865 5.67839 3.45443 5.87891 3.08984C5.97005 2.87109 6.05208 2.71615 6.125 2.625V2.625V2.625M5.00391 2.87109C4.80339 3.34505 4.66667 3.99219 4.59375 4.8125H3.52734V4.8125C3.70964 3.91927 4.20182 3.27214 5.00391 2.87109V2.87109V2.87109M9.625 5.25C9.625 4.61198 9.47005 4.02865 9.16016 3.5V3.5V3.5C8.85026 2.97135 8.42188 2.54297 7.875 2.21484C7.32812 1.90495 6.74479 1.75 6.125 1.75C5.50521 1.75 4.92188 1.90495 4.375 2.21484C3.82812 2.54297 3.39974 2.97135 3.08984 3.5C2.77995 4.02865 2.625 4.61198 2.625 5.25C2.625 5.88802 2.77995 6.47135 3.08984 7C3.39974 7.52865 3.82812 7.95703 4.375 8.28516C4.92188 8.59505 5.50521 8.75 6.125 8.75C6.74479 8.75 7.32812 8.59505 7.875 8.28516C8.42188 7.95703 8.85026 7.52865 9.16016 7C9.47005 6.47135 9.625 5.88802 9.625 5.25V5.25V5.25M3.0625 10.5C2.78906 10.5182 2.64323 10.6641 2.625 10.9375C2.64323 11.2109 2.78906 11.3568 3.0625 11.375H9.1875V11.375C9.46094 11.3568 9.60677 11.2109 9.625 10.9375C9.60677 10.6641 9.46094 10.5182 9.1875 10.5H3.0625V10.5V10.5" fill="var(--fill-0, white)"/>
</svg>
