<svg preserveAspectRatio="none" width="100%" height="100%" overflow="visible" style="display: block;" viewBox="0 0 15.0033 15.9062" fill="none" xmlns="http://www.w3.org/2000/svg">
<g id="Container">
<path id="Symbol" d="M7.50164 0C7.64748 0 7.78289 0.03125 7.90789 0.09375L13.8141 2.59375V2.59375C14.1683 2.73958 14.4496 2.96875 14.6579 3.28125C14.8871 3.59375 15.0016 3.95833 15.0016 4.375C15.0225 5.4375 14.8454 6.6875 14.4704 8.125C14.0954 9.5625 13.4183 10.9583 12.4391 12.3125C11.4808 13.6875 10.1058 14.8229 8.31415 15.7188C7.77248 15.9688 7.23081 15.9688 6.68914 15.7188C4.89748 14.8229 3.52248 13.6875 2.56414 12.3125C1.58498 10.9583 0.907895 9.5625 0.532895 8.125C0.157895 6.6875 -0.0191886 5.4375 0.00164474 4.375C0.00164474 3.95833 0.116228 3.59375 0.345395 3.28125C0.553728 2.96875 0.834978 2.73958 1.18914 2.59375L7.09539 0.09375V0.09375C7.22039 0.03125 7.35581 0 7.50164 0V0V0M7.50164 2.09375V13.9062V2.09375V13.9062C8.91831 13.1771 10.0329 12.25 10.8454 11.125C11.6371 10 12.1996 8.84375 12.5329 7.65625C12.8454 6.44792 13.0016 5.36458 13.0016 4.40625L7.50164 2.09375V2.09375V2.09375V2.09375V2.09375" fill="var(--fill-0, #2563EB)"/>
</g>
</svg>
