<svg preserveAspectRatio="none" width="100%" height="100%" overflow="visible" style="display: block;" viewBox="0 0 20 16" fill="none" xmlns="http://www.w3.org/2000/svg">
<g id="Container">
<path id="Symbol" d="M4.5 5C5.4375 4.97917 6.15625 4.5625 6.65625 3.75C7.11458 2.91667 7.11458 2.08333 6.65625 1.25C6.15625 0.4375 5.4375 0.0208333 4.5 0C3.5625 0.0208333 2.84375 0.4375 2.34375 1.25C1.88542 2.08333 1.88542 2.91667 2.34375 3.75C2.84375 4.5625 3.5625 4.97917 4.5 5V5V5M16 5C16.9375 4.97917 17.6562 4.5625 18.1562 3.75C18.6146 2.91667 18.6146 2.08333 18.1562 1.25C17.6562 0.4375 16.9375 0.0208333 16 0C15.0625 0.0208333 14.3438 0.4375 13.8438 1.25C13.3854 2.08333 13.3854 2.91667 13.8438 3.75C14.3438 4.5625 15.0625 4.97917 16 5V5V5M0 9.34375C0.0416667 9.73958 0.260417 9.95833 0.65625 10H7.34375V10V10V10C6.48958 9.22917 6.04167 8.22917 6 7C6 6.77083 6.02083 6.54167 6.0625 6.3125C5.625 6.10417 5.15625 6 4.65625 6H3.34375V6C2.38542 6.02083 1.59375 6.34375 0.96875 6.96875C0.34375 7.59375 0.0208333 8.38542 0 9.34375V9.34375V9.34375M10 10C10.7708 9.97917 11.4271 9.73958 11.9688 9.28125C12.0312 9.15625 12.1146 9.04167 12.2188 8.9375C12.3021 8.83333 12.3958 8.75 12.5 8.6875C12.8333 8.1875 13 7.625 13 7C12.9792 6.14583 12.6875 5.4375 12.125 4.875C11.5625 4.3125 10.8542 4.02083 10 4C9.14583 4.02083 8.4375 4.3125 7.875 4.875C7.3125 5.4375 7.02083 6.14583 7 7C7.02083 7.85417 7.3125 8.5625 7.875 9.125C8.4375 9.6875 9.14583 9.97917 10 10V10V10M12.0312 11.875C11.6979 11.6875 11.4896 11.3958 11.4062 11H8.15625V11C6.98958 11.0208 6.01042 11.4271 5.21875 12.2188C4.42708 13.0104 4.02083 13.9896 4 15.1562C4.04167 15.6771 4.32292 15.9583 4.84375 16H14.2188V16C14.1562 15.8333 14.125 15.6667 14.125 15.5V15.4062V15.4062C14.0833 15.3854 14.0417 15.3542 14 15.3125L13.9062 15.375V15.375C13.6354 15.5208 13.3438 15.5729 13.0312 15.5312C12.7188 15.4896 12.4479 15.3333 12.2188 15.0625C12.0729 14.8958 11.9375 14.7188 11.8125 14.5312V14.5V14.5V14.5V14.5L11.75 14.375V14.375V14.375V14.375H11.7188V14.375C11.6146 14.1667 11.5208 13.9583 11.4375 13.75C11.3333 13.4167 11.3438 13.1042 11.4688 12.8125C11.5938 12.5208 11.7812 12.2917 12.0312 12.125L12.125 12.0625V12.0625C12.125 12.0417 12.125 12.0208 12.125 12C12.125 11.9792 12.125 11.9583 12.125 11.9375L12.0312 11.875V11.875V11.875M16.6562 6H15.3438H16.6562H15.3438C14.8438 6 14.375 6.10417 13.9375 6.3125C13.9792 6.54167 14 6.77083 14 7C14 7.54167 13.8958 8.05208 13.6875 8.53125C13.7708 8.55208 13.8438 8.58333 13.9062 8.625L14 8.6875V8.6875C14.0417 8.66667 14.0833 8.64583 14.125 8.625V8.53125V8.53125C14.125 8.19792 14.2188 7.90625 14.4062 7.65625C14.6146 7.40625 14.8958 7.25 15.25 7.1875C15.5 7.14583 15.75 7.125 16 7.125C16.25 7.125 16.5 7.14583 16.75 7.1875C17.1042 7.25 17.3854 7.40625 17.5938 7.65625C17.7812 7.90625 17.875 8.19792 17.875 8.53125V8.625V8.625C17.9167 8.64583 17.9583 8.66667 18 8.6875L18.0938 8.625V8.625C18.3646 8.47917 18.6562 8.42708 18.9688 8.46875C19.2812 8.51042 19.5521 8.66667 19.7812 8.9375C19.8646 9.02083 19.9375 9.11458 20 9.21875C19.9375 8.30208 19.5938 7.54167 18.9688 6.9375C18.3646 6.33333 17.5938 6.02083 16.6562 6V6V6M19.5312 11.125C19.7396 10.9792 19.8021 10.7917 19.7188 10.5625C19.6562 10.3958 19.5833 10.2292 19.5 10.0625L19.4375 9.9375V9.9375C19.3333 9.77083 19.2188 9.625 19.0938 9.5C18.9271 9.3125 18.7292 9.28125 18.5 9.40625L18.4375 9.4375V9.4375C18.125 9.60417 17.8125 9.59375 17.5 9.40625C17.1875 9.21875 17.0208 8.95833 17 8.625V8.5V8.5C16.9792 8.25 16.8542 8.10417 16.625 8.0625C16.4167 8.02083 16.2083 8 16 8C15.7917 8 15.5833 8.02083 15.375 8.0625C15.1458 8.10417 15.0208 8.25 15 8.5V8.625V8.625C14.9792 8.95833 14.8125 9.21875 14.5 9.40625C14.1875 9.59375 13.875 9.60417 13.5625 9.4375L13.4688 9.40625V9.40625C13.2604 9.28125 13.0625 9.3125 12.875 9.5C12.7708 9.625 12.6667 9.77083 12.5625 9.9375L12.5 10.0625V10.0625C12.4167 10.2292 12.3333 10.3958 12.25 10.5625C12.1875 10.7917 12.2604 10.9792 12.4688 11.125L12.5625 11.1875V11.1875C12.8542 11.375 13 11.6458 13 12C13 12.3542 12.8542 12.625 12.5625 12.8125L12.4688 12.875V12.875C12.2604 13.0208 12.1875 13.2083 12.25 13.4375C12.3125 13.6042 12.3958 13.7708 12.5 13.9375L12.5625 14.0625V14.0625C12.6667 14.2083 12.7708 14.3542 12.875 14.5C13.0417 14.6875 13.2396 14.7188 13.4688 14.5938L13.5625 14.5625V14.5625C13.875 14.3958 14.1875 14.4062 14.5 14.5938C14.8125 14.7604 14.9792 15.0208 15 15.375V15.4688V15.4688C15 15.7188 15.125 15.875 15.375 15.9375C15.5833 15.9792 15.7917 16 16 16C16.2083 16 16.4167 15.9792 16.625 15.9375C16.8542 15.875 16.9792 15.7188 17 15.4688V15.375V15.375C17.0208 15.0208 17.1875 14.7604 17.5 14.5938C17.8125 14.4062 18.1146 14.3958 18.4062 14.5625L18.5 14.5938V14.5938C18.7292 14.7188 18.9271 14.6875 19.0938 14.5C19.2188 14.3542 19.3229 14.2083 19.4062 14.0625L19.5 13.9375V13.9375C19.5833 13.7708 19.6562 13.6042 19.7188 13.4375C19.8021 13.1875 19.7396 13 19.5312 12.875L19.4375 12.8125V12.8125C19.1458 12.625 19 12.3542 19 12C19 11.6458 19.1458 11.3646 19.4375 11.1562L19.5312 11.125V11.125V11.125M14.75 12C14.7708 11.5208 14.9792 11.1562 15.375 10.9062C15.7917 10.6979 16.2083 10.6979 16.625 10.9062C17.0208 11.1562 17.2292 11.5208 17.25 12C17.2292 12.4792 17.0208 12.8438 16.625 13.0938C16.2083 13.3021 15.7917 13.3021 15.375 13.0938C14.9792 12.8438 14.7708 12.4792 14.75 12V12V12" fill="var(--fill-0, #6B7280)"/>
</g>
</svg>
