<svg preserveAspectRatio="none" width="100%" height="100%" overflow="visible" style="display: block;" viewBox="0 0 12 16" fill="none" xmlns="http://www.w3.org/2000/svg">
<g id="Container">
<path id="Symbol" d="M2 0C1.4375 0.0208333 0.96875 0.21875 0.59375 0.59375V0.59375V0.59375C0.21875 0.96875 0.0208333 1.4375 0 2V14V14C0.0208333 14.5625 0.21875 15.0312 0.59375 15.4062C0.96875 15.7812 1.4375 15.9792 2 16H10V16C10.5625 15.9792 11.0312 15.7812 11.4062 15.4062C11.7812 15.0312 11.9792 14.5625 12 14V5V5H8V5C7.70833 5 7.46875 4.90625 7.28125 4.71875C7.09375 4.53125 7 4.29167 7 4V0V0H2V0V0M8 0V4V0V4H12V4L8 0V0V0M2.5 2H4.5H2.5H4.5C4.8125 2.02083 4.97917 2.1875 5 2.5C4.97917 2.8125 4.8125 2.97917 4.5 3H2.5V3C2.1875 2.97917 2.02083 2.8125 2 2.5C2.02083 2.1875 2.1875 2.02083 2.5 2V2V2M2.5 4H4.5H2.5H4.5C4.8125 4.02083 4.97917 4.1875 5 4.5C4.97917 4.8125 4.8125 4.97917 4.5 5H2.5V5C2.1875 4.97917 2.02083 4.8125 2 4.5C2.02083 4.1875 2.1875 4.02083 2.5 4V4V4M4.1875 11.9375C3.95833 12.6042 3.47917 12.9583 2.75 13H2.5V13C2.1875 12.9792 2.02083 12.8125 2 12.5C2.02083 12.1875 2.1875 12.0208 2.5 12H2.75V12C3 11.9792 3.16667 11.8646 3.25 11.6562L3.6875 10.0938V10.0938C3.83333 9.71875 4.10417 9.52083 4.5 9.5C4.89583 9.52083 5.16667 9.71875 5.3125 10.0938L5.65625 11.3125V11.3125C5.90625 11.1042 6.1875 11 6.5 11C7.02083 11.0208 7.41667 11.2604 7.6875 11.7188L7.8125 12V12H9.5V12C9.8125 12.0208 9.97917 12.1875 10 12.5C9.97917 12.8125 9.8125 12.9792 9.5 13H7.5V13C7.29167 13 7.14583 12.9062 7.0625 12.7188L6.78125 12.1875V12.1875C6.71875 12.0625 6.625 12 6.5 12C6.375 12 6.28125 12.0625 6.21875 12.1875L5.9375 12.7188V12.7188C5.83333 12.9062 5.67708 13 5.46875 13C5.23958 12.9792 5.09375 12.8646 5.03125 12.6562L4.5 10.9062V10.9062L4.1875 11.9375V11.9375V11.9375" fill="var(--fill-0, #0D9488)"/>
</g>
</svg>
