<svg preserveAspectRatio="none" width="100%" height="100%" overflow="visible" style="display: block;" viewBox="0 0 18 16" fill="none" xmlns="http://www.w3.org/2000/svg">
<g id="Container">
<path id="Symbol" d="M2 0C1.4375 0.0208333 0.96875 0.21875 0.59375 0.59375V0.59375V0.59375C0.21875 0.96875 0.0208333 1.4375 0 2V14V14C0.0208333 14.5625 0.21875 15.0312 0.59375 15.4062C0.96875 15.7812 1.4375 15.9792 2 16H10V16C10.5625 15.9792 11.0312 15.7812 11.4062 15.4062C11.7812 15.0312 11.9792 14.5625 12 14V13.4062V13.4062C11.9167 13.4271 11.8333 13.4479 11.75 13.4688L9.875 13.9375V13.9375C9.77083 13.9583 9.67708 13.9792 9.59375 14C9.55208 14 9.52083 14 9.5 14H7.5V14C7.29167 14 7.14583 13.9062 7.0625 13.7188L6.78125 13.1875V13.1875C6.71875 13.0625 6.625 13 6.5 13C6.375 13 6.28125 13.0625 6.21875 13.1875L5.9375 13.7188V13.7188C5.83333 13.9062 5.67708 14 5.46875 14C5.23958 13.9792 5.09375 13.8646 5.03125 13.6562L4.5 11.9062V11.9062L4.1875 12.9375V12.9375C3.95833 13.6042 3.47917 13.9583 2.75 14H2.5V14C2.1875 13.9792 2.02083 13.8125 2 13.5C2.02083 13.1875 2.1875 13.0208 2.5 13H2.75V13C3 12.9792 3.16667 12.8646 3.25 12.6562L3.6875 11.0938V11.0938C3.83333 10.7188 4.10417 10.5208 4.5 10.5C4.89583 10.5208 5.16667 10.7188 5.3125 11.0938L5.65625 12.3125V12.3125C5.90625 12.1042 6.1875 12 6.5 12C7.02083 12.0208 7.41667 12.2604 7.6875 12.7188L7.8125 13V13H8.09375V13C7.98958 12.7292 7.96875 12.4375 8.03125 12.125L8.5 10.25V10.25C8.60417 9.89583 8.78125 9.58333 9.03125 9.3125L12 6.375V6.375V5V5H8V5C7.70833 5 7.46875 4.90625 7.28125 4.71875C7.09375 4.53125 7 4.29167 7 4V0V0H2V0V0M8 0V4V0V4H12V4L8 0V0V0M17.1875 4.375C16.9167 4.125 16.625 4 16.3125 4V4V4C15.9792 4 15.6771 4.125 15.4062 4.375L14.5 5.28125V5.28125L16.7188 7.5V7.5L17.625 6.59375V6.59375C17.875 6.32292 18 6.02083 18 5.6875C18 5.35417 17.875 5.0625 17.625 4.8125L17.1875 4.375V4.375V4.375M9.75 10.0312C9.625 10.1562 9.54167 10.3125 9.5 10.5L9.03125 12.375V12.375C8.98958 12.5625 9.03125 12.7188 9.15625 12.8438C9.28125 12.9688 9.4375 13.0104 9.625 12.9688L11.5 12.5V12.5C11.6875 12.4583 11.8438 12.375 11.9688 12.25L16 8.21875V8.21875L13.7812 6V6L9.75 10.0312V10.0312V10.0312" fill="var(--fill-0, #8B5CF6)"/>
</g>
</svg>
